<?xml version="1.0" encoding="UTF-8"?>
<!DOCTYPE svg PUBLIC "-//W3C//DTD SVG 1.1//EN" "http://www.w3.org/Graphics/SVG/1.1/DTD/svg11.dtd">
<svg xmlns="http://www.w3.org/2000/svg" version="1.1" width="488px" height="511px" style="shape-rendering:geometricPrecision; text-rendering:geometricPrecision; image-rendering:optimizeQuality; fill-rule:evenodd; clip-rule:evenodd" xmlns:xlink="http://www.w3.org/1999/xlink">
<g><path style="opacity:1" fill="#62c96c" d="M 96.5,86.5 C 111.848,86.1673 127.181,86.5006 142.5,87.5C 142.808,88.3081 143.308,88.9747 144,89.5C 146.98,89.4147 149.98,89.0813 153,88.5C 155.069,89.2638 157.236,89.7638 159.5,90C 159.167,90.3333 158.833,90.6667 158.5,91C 152.804,91.1701 147.138,91.6701 141.5,92.5C 143.5,93.1667 145.5,93.8333 147.5,94.5C 146.271,95.2811 144.938,95.7811 143.5,96C 123.169,96.5 102.836,96.6666 82.5,96.5C 82.6107,95.8826 82.944,95.3826 83.5,95C 90.1667,93.3333 96.8333,91.6667 103.5,90C 101.19,89.5034 98.8568,89.3367 96.5,89.5C 96.5,88.5 96.5,87.5 96.5,86.5 Z"/></g>
<g><path style="opacity:1" fill="#67bfa7" d="M 46.5,85.5 C 177.5,84.1667 308.5,84.1667 439.5,85.5C 422.833,85.5 406.167,85.5 389.5,85.5C 365.758,85.1674 342.758,85.5008 320.5,86.5C 320.5,87.5 320.5,88.5 320.5,89.5C 325.459,89.735 330.292,89.735 335,89.5C 335.492,90.549 335.326,91.549 334.5,92.5C 329.198,93.3295 323.864,93.8295 318.5,94C 318.957,94.414 319.291,94.914 319.5,95.5C 308.515,96.3324 297.515,96.8324 286.5,97C 310.831,97.5 335.164,97.6666 359.5,97.5C 370.833,97.5 382.167,97.5 393.5,97.5C 409.009,97.1705 424.342,97.5038 439.5,98.5C 371.5,98.5 303.5,98.5 235.5,98.5C 234.173,97.1999 232.84,95.8665 231.5,94.5C 230.265,95.3398 229.265,96.3398 228.5,97.5C 226.167,97.5 223.833,97.5 221.5,97.5C 223.265,96.5386 225.265,96.2053 227.5,96.5C 227.5,95.1667 227.5,93.8333 227.5,92.5C 231.005,91.8909 233.672,93.0576 235.5,96C 244.167,96.6667 252.833,96.6667 261.5,96C 263.608,95.6401 265.608,94.9734 267.5,94C 265.709,91.8938 265.042,89.3938 265.5,86.5C 230.503,85.9103 195.503,85.577 160.5,85.5C 122.5,85.5 84.5,85.5 46.5,85.5 Z"/></g>
<g><path style="opacity:1" fill="#48b986" d="M 160.5,85.5 C 195.503,85.577 230.503,85.9103 265.5,86.5C 265.042,89.3938 265.709,91.8938 267.5,94C 265.608,94.9734 263.608,95.6401 261.5,96C 252.833,96.6667 244.167,96.6667 235.5,96C 233.672,93.0576 231.005,91.8909 227.5,92.5C 227.5,93.8333 227.5,95.1667 227.5,96.5C 225.265,96.2053 223.265,96.5386 221.5,97.5C 200.5,97.5 179.5,97.5 158.5,97.5C 178.02,96.8635 197.687,96.0302 217.5,95C 213.833,94 210.167,93 206.5,92C 207.763,90.2949 208.097,88.6282 207.5,87C 191.661,86.8314 175.995,86.3314 160.5,85.5 Z"/></g>
<g><path style="opacity:1" fill="#6ecf63" d="M 61.5,86.5 C 73.1667,86.5 84.8333,86.5 96.5,86.5C 96.5,87.5 96.5,88.5 96.5,89.5C 98.8568,89.3367 101.19,89.5034 103.5,90C 96.8333,91.6667 90.1667,93.3333 83.5,95C 82.944,95.3826 82.6107,95.8826 82.5,96.5C 70.8333,96.5 59.1667,96.5 47.5,96.5C 53.9797,95.3484 60.6464,94.515 67.5,94C 66.2068,93.51 64.8734,93.3433 63.5,93.5C 63.5,92.5 63.5,91.5 63.5,90.5C 59.4862,90.6655 55.4862,90.4988 51.5,90C 55.4,90.0375 58.7333,88.8709 61.5,86.5 Z"/></g>
<g><path style="opacity:1" fill="#2fa998" d="M 320.5,86.5 C 338.17,86.3334 355.836,86.5001 373.5,87C 366.5,87.3333 359.5,87.6667 352.5,88C 352.167,88.3333 351.833,88.6667 351.5,89C 356.151,89.8987 360.818,90.7321 365.5,91.5C 363.208,93.2577 360.541,94.4244 357.5,95C 358.833,95.3333 360.167,95.6667 361.5,96C 360.584,96.2784 359.918,96.7784 359.5,97.5C 335.164,97.6666 310.831,97.5 286.5,97C 297.515,96.8324 308.515,96.3324 319.5,95.5C 319.291,94.914 318.957,94.414 318.5,94C 323.864,93.8295 329.198,93.3295 334.5,92.5C 335.326,91.549 335.492,90.549 335,89.5C 330.292,89.735 325.459,89.735 320.5,89.5C 320.5,88.5 320.5,87.5 320.5,86.5 Z"/></g>
<g><path style="opacity:1" fill="#1ea1a0" d="M 389.5,85.5 C 400.008,86.1666 410.674,86.8333 421.5,87.5C 414.243,88.9133 406.91,89.9133 399.5,90.5C 403.192,91.2525 406.858,92.0858 410.5,93C 408.939,93.3176 407.772,94.1509 407,95.5C 406,95.1667 405,94.8333 404,94.5C 400.64,96.0702 397.14,97.0702 393.5,97.5C 382.167,97.5 370.833,97.5 359.5,97.5C 359.918,96.7784 360.584,96.2784 361.5,96C 360.167,95.6667 358.833,95.3333 357.5,95C 360.541,94.4244 363.208,93.2577 365.5,91.5C 360.818,90.7321 356.151,89.8987 351.5,89C 351.833,88.6667 352.167,88.3333 352.5,88C 359.5,87.6667 366.5,87.3333 373.5,87C 355.836,86.5001 338.17,86.3334 320.5,86.5C 342.758,85.5008 365.758,85.1674 389.5,85.5 Z"/></g>
<g><path style="opacity:1" fill="#5bc279" d="M 46.5,85.5 C 84.5,85.5 122.5,85.5 160.5,85.5C 175.995,86.3314 191.661,86.8314 207.5,87C 208.097,88.6282 207.763,90.2949 206.5,92C 210.167,93 213.833,94 217.5,95C 197.687,96.0302 178.02,96.8635 158.5,97.5C 120.833,97.5 83.1667,97.5 45.5,97.5C 45.8417,96.6618 46.5084,96.3284 47.5,96.5C 59.1667,96.5 70.8333,96.5 82.5,96.5C 102.836,96.6666 123.169,96.5 143.5,96C 144.938,95.7811 146.271,95.2811 147.5,94.5C 145.5,93.8333 143.5,93.1667 141.5,92.5C 147.138,91.6701 152.804,91.1701 158.5,91C 158.833,90.6667 159.167,90.3333 159.5,90C 157.236,89.7638 155.069,89.2638 153,88.5C 149.98,89.0813 146.98,89.4147 144,89.5C 143.308,88.9747 142.808,88.3081 142.5,87.5C 127.181,86.5006 111.848,86.1673 96.5,86.5C 84.8333,86.5 73.1667,86.5 61.5,86.5C 55.1373,86.407 48.8039,86.7403 42.5,87.5C 42.5,87.1667 42.5,86.8333 42.5,86.5C 43.5676,85.5655 44.901,85.2322 46.5,85.5 Z"/></g>
<g><path style="opacity:1" fill="#1f9aa9" d="M 389.5,85.5 C 406.167,85.5 422.833,85.5 439.5,85.5C 450.137,86.6454 457.804,91.9788 462.5,101.5C 459.764,99.0958 456.764,97.0958 453.5,95.5C 454.232,99.0187 455.565,102.352 457.5,105.5C 457.333,105.833 457.167,106.167 457,106.5C 453.42,102.205 451.587,102.872 451.5,108.5C 449.039,103.376 445.039,100.043 439.5,98.5C 424.342,97.5038 409.009,97.1705 393.5,97.5C 397.14,97.0702 400.64,96.0702 404,94.5C 405,94.8333 406,95.1667 407,95.5C 407.772,94.1509 408.939,93.3176 410.5,93C 406.858,92.0858 403.192,91.2525 399.5,90.5C 406.91,89.9133 414.243,88.9133 421.5,87.5C 410.674,86.8333 400.008,86.1666 389.5,85.5 Z"/></g>
<g><path style="opacity:0.448" fill="#b0deb9" d="M 45.5,97.5 C 83.1667,97.5 120.833,97.5 158.5,97.5C 179.5,97.5 200.5,97.5 221.5,97.5C 223.833,97.5 226.167,97.5 228.5,97.5C 228.672,98.4916 228.338,99.1583 227.5,99.5C 167.668,98.3347 107.668,98.1681 47.5,99C 45.1887,99.2359 43.1887,100.069 41.5,101.5C 41.5,100.5 41.5,99.5 41.5,98.5C 43.099,98.7678 44.4324,98.4345 45.5,97.5 Z"/></g>
<g><path style="opacity:1" fill="#1c98ae" d="M 462.5,101.5 C 466.582,110.776 466.416,120.109 462,129.5C 459.392,134.397 456.559,139.063 453.5,143.5C 451.362,143.703 449.695,144.703 448.5,146.5C 447.833,144.5 447.167,142.5 446.5,140.5C 445.685,144.3 444.018,147.633 441.5,150.5C 439.844,153.018 438.511,153.018 437.5,150.5C 437.5,148.833 437.5,147.167 437.5,145.5C 441.975,137.221 446.475,128.887 451,120.5C 452.716,116.572 452.883,112.572 451.5,108.5C 451.587,102.872 453.42,102.205 457,106.5C 457.167,106.167 457.333,105.833 457.5,105.5C 455.565,102.352 454.232,99.0187 453.5,95.5C 456.764,97.0958 459.764,99.0958 462.5,101.5 Z"/></g>
<g><path style="opacity:1" fill="#141514" d="M 235.5,98.5 C 239.431,104.697 243.098,111.031 246.5,117.5C 245.848,118.725 244.681,119.392 243,119.5C 241.122,119.304 239.288,118.971 237.5,118.5C 236.223,116.05 234.723,113.717 233,111.5C 232.626,113.491 231.793,115.158 230.5,116.5C 229.603,117.598 228.77,117.598 228,116.5C 227.383,117.449 227.549,118.282 228.5,119C 227,119.167 225.5,119.333 224,119.5C 222.014,119.431 220.514,118.765 219.5,117.5C 221.729,111.282 224.395,105.282 227.5,99.5C 228.338,99.1583 228.672,98.4916 228.5,97.5C 229.265,96.3398 230.265,95.3398 231.5,94.5C 232.84,95.8665 234.173,97.1999 235.5,98.5 Z"/></g>
<g><path style="opacity:1" fill="#92d37c" d="M 39.5,102.5 C 35.1482,107.903 33.9815,113.903 36,120.5C 39.7804,127.063 43.2804,133.729 46.5,140.5C 44.9826,140.489 43.8159,139.823 43,138.5C 40.0009,132.815 37.0009,127.149 34,121.5C 32.9486,115.226 33.782,109.226 36.5,103.5C 37.4168,102.873 38.4168,102.539 39.5,102.5 Z"/></g>
<g><path style="opacity:1" fill="#79d65b" d="M 61.5,86.5 C 58.7333,88.8709 55.4,90.0375 51.5,90C 55.4862,90.4988 59.4862,90.6655 63.5,90.5C 63.5,91.5 63.5,92.5 63.5,93.5C 64.8734,93.3433 66.2068,93.51 67.5,94C 60.6464,94.515 53.9797,95.3484 47.5,96.5C 46.5084,96.3284 45.8417,96.6618 45.5,97.5C 44.4324,98.4345 43.099,98.7678 41.5,98.5C 41.5,99.5 41.5,100.5 41.5,101.5C 40.8333,101.833 40.1667,102.167 39.5,102.5C 38.4168,102.539 37.4168,102.873 36.5,103.5C 33.782,109.226 32.9486,115.226 34,121.5C 37.0009,127.149 40.0009,132.815 43,138.5C 43.8159,139.823 44.9826,140.489 46.5,140.5C 47.3382,140.842 47.6716,141.508 47.5,142.5C 47.2148,144.288 47.5481,145.955 48.5,147.5C 52.2144,151.925 54.5477,156.925 55.5,162.5C 50.3556,163.812 50.1889,165.812 55,168.5C 55.9234,167.241 56.7568,165.908 57.5,164.5C 60.0289,166.063 61.0289,168.396 60.5,171.5C 59.448,171.351 58.448,171.517 57.5,172C 58.7596,173.814 58.7596,175.647 57.5,177.5C 56.5832,176.873 55.5832,176.539 54.5,176.5C 54.0269,175.094 53.0269,174.427 51.5,174.5C 51.5,174.167 51.5,173.833 51.5,173.5C 48.5123,166.856 45.5123,160.189 42.5,153.5C 39.9182,150.961 37.9182,147.961 36.5,144.5C 40.4436,142.596 40.1103,141.596 35.5,141.5C 35.5,140.5 35.5,139.5 35.5,138.5C 34.1667,138.5 32.8333,138.5 31.5,138.5C 31.313,136.436 30.813,134.436 30,132.5C 26.9775,129.79 24.9775,126.456 24,122.5C 21.0966,105.672 27.2633,94.0053 42.5,87.5C 48.8039,86.7403 55.1373,86.407 61.5,86.5 Z"/></g>
<g><path style="opacity:0.947" fill="#373737" d="M 246.5,117.5 C 251.642,124.43 256.308,131.764 260.5,139.5C 257.974,140.51 255.808,139.843 254,137.5C 252,134.167 250,130.833 248,127.5C 246.084,126.072 243.917,125.072 241.5,124.5C 240.156,122.471 238.823,120.471 237.5,118.5C 239.288,118.971 241.122,119.304 243,119.5C 244.681,119.392 245.848,118.725 246.5,117.5 Z"/></g>
<g><path style="opacity:1" fill="#91d37a" d="M 42.5,86.5 C 42.5,86.8333 42.5,87.1667 42.5,87.5C 27.2633,94.0053 21.0966,105.672 24,122.5C 24.9775,126.456 26.9775,129.79 30,132.5C 30.813,134.436 31.313,136.436 31.5,138.5C 32.8333,138.5 34.1667,138.5 35.5,138.5C 35.5,139.5 35.5,140.5 35.5,141.5C 40.1103,141.596 40.4436,142.596 36.5,144.5C 37.9182,147.961 39.9182,150.961 42.5,153.5C 45.5123,160.189 48.5123,166.856 51.5,173.5C 43.5299,160.671 35.6966,147.671 28,134.5C 17.8824,118.01 19.7158,103.177 33.5,90C 36.0722,87.7132 39.0722,86.5465 42.5,86.5 Z"/></g>
<g><path style="opacity:0.993" fill="#2e2e2e" d="M 230.5,116.5 C 222.008,134.818 213.008,152.818 203.5,170.5C 202.946,166.945 200.946,164.612 197.5,163.5C 204.34,147.823 211.674,132.49 219.5,117.5C 220.514,118.765 222.014,119.431 224,119.5C 225.5,119.333 227,119.167 228.5,119C 227.549,118.282 227.383,117.449 228,116.5C 228.77,117.598 229.603,117.598 230.5,116.5 Z"/></g>
<g><path style="opacity:1" fill="#1a9baa" d="M 453.5,143.5 C 446.668,156.502 439.335,169.168 431.5,181.5C 430.25,181.577 429.417,182.244 429,183.5C 428.682,178.372 426.682,177.372 423,180.5C 422.598,181.872 422.098,183.205 421.5,184.5C 420.5,185.833 419.5,185.833 418.5,184.5C 419.274,180.951 420.607,177.618 422.5,174.5C 427.554,166.361 432.554,158.361 437.5,150.5C 438.511,153.018 439.844,153.018 441.5,150.5C 444.018,147.633 445.685,144.3 446.5,140.5C 447.167,142.5 447.833,144.5 448.5,146.5C 449.695,144.703 451.362,143.703 453.5,143.5 Z"/></g>
<g><path style="opacity:0.945" fill="#8acb7d" d="M 51.5,174.5 C 53.0269,174.427 54.0269,175.094 54.5,176.5C 59.6465,186.503 65.4798,196.169 72,205.5C 72.4935,207.134 72.6602,208.801 72.5,210.5C 65.0103,198.864 58.0103,186.864 51.5,174.5 Z"/></g>
<g><path style="opacity:1" fill="#6fd065" d="M 47.5,142.5 C 54.922,153.67 61.5886,165.337 67.5,177.5C 67.3433,178.873 67.51,180.207 68,181.5C 70.6317,184.622 72.7984,187.955 74.5,191.5C 75.3078,193.423 75.8078,195.423 76,197.5C 79.8959,201.61 83.0625,206.277 85.5,211.5C 86.3569,212.425 87.3569,213.092 88.5,213.5C 88.5465,216.928 89.7132,219.928 92,222.5C 92.3333,225.167 92.6667,227.833 93,230.5C 93.3076,229.692 93.8076,229.025 94.5,228.5C 96.1792,230.842 97.8459,233.176 99.5,235.5C 100.76,237.353 100.76,239.186 99.5,241C 100.448,241.483 101.448,241.649 102.5,241.5C 105.371,245.746 107.538,250.413 109,255.5C 109.301,258.507 109.135,261.507 108.5,264.5C 107.167,264.5 105.833,264.5 104.5,264.5C 103.513,262.449 102.18,260.782 100.5,259.5C 97.362,252.552 94.1953,245.552 91,238.5C 89.9887,237.663 88.8221,237.33 87.5,237.5C 82.2342,228.634 77.2342,219.634 72.5,210.5C 72.6602,208.801 72.4935,207.134 72,205.5C 65.4798,196.169 59.6465,186.503 54.5,176.5C 55.5832,176.539 56.5832,176.873 57.5,177.5C 58.7596,175.647 58.7596,173.814 57.5,172C 58.448,171.517 59.448,171.351 60.5,171.5C 61.0289,168.396 60.0289,166.063 57.5,164.5C 56.7568,165.908 55.9234,167.241 55,168.5C 50.1889,165.812 50.3556,163.812 55.5,162.5C 54.5477,156.925 52.2144,151.925 48.5,147.5C 47.5481,145.955 47.2148,144.288 47.5,142.5 Z"/></g>
<g><path style="opacity:1" fill="#259fa5" d="M 437.5,145.5 C 437.5,147.167 437.5,148.833 437.5,150.5C 432.554,158.361 427.554,166.361 422.5,174.5C 420.607,177.618 419.274,180.951 418.5,184.5C 419.5,185.833 420.5,185.833 421.5,184.5C 422.098,183.205 422.598,181.872 423,180.5C 426.682,177.372 428.682,178.372 429,183.5C 429.417,182.244 430.25,181.577 431.5,181.5C 419.416,203.337 407.083,225.004 394.5,246.5C 393.883,246.389 393.383,246.056 393,245.5C 392.333,246.833 391.333,247.833 390,248.5C 388.736,246.205 387.57,243.871 386.5,241.5C 388.951,238.335 390.951,235.002 392.5,231.5C 392.98,228.373 393.98,225.54 395.5,223C 394.748,222.329 394.414,221.496 394.5,220.5C 408.442,195.237 422.775,170.237 437.5,145.5 Z"/></g>
<g><path style="opacity:1" fill="#87cd7f" d="M 67.5,177.5 C 75.0014,189.164 82.0014,201.164 88.5,213.5C 87.3569,213.092 86.3569,212.425 85.5,211.5C 83.0625,206.277 79.8959,201.61 76,197.5C 75.8078,195.423 75.3078,193.423 74.5,191.5C 72.7984,187.955 70.6317,184.622 68,181.5C 67.51,180.207 67.3433,178.873 67.5,177.5 Z"/></g>
<g><path style="opacity:0.997" fill="#1b1b1b" d="M 197.5,163.5 C 200.946,164.612 202.946,166.945 203.5,170.5C 183.74,212.022 163.406,253.355 142.5,294.5C 141.662,294.842 141.328,295.508 141.5,296.5C 140.691,295.531 139.691,294.698 138.5,294C 139.451,293.282 139.617,292.449 139,291.5C 137.615,292.551 136.615,293.884 136,295.5C 135.536,294.906 135.369,294.239 135.5,293.5C 135.5,292.833 135.5,292.167 135.5,291.5C 155.642,248.55 176.309,205.884 197.5,163.5 Z"/></g>
<g><path style="opacity:0.875" fill="#8acd88" d="M 87.5,237.5 C 88.8221,237.33 89.9887,237.663 91,238.5C 94.1953,245.552 97.362,252.552 100.5,259.5C 95.6775,252.532 91.3442,245.199 87.5,237.5 Z"/></g>
<g><path style="opacity:0.994" fill="#313131" d="M 340.5,267.5 C 338.973,267.427 337.973,268.094 337.5,269.5C 334.602,266.207 332.602,262.373 331.5,258C 332.126,257.25 332.626,256.416 333,255.5C 336.273,259.052 338.773,263.052 340.5,267.5 Z"/></g>
<g><path style="opacity:0.902" fill="#88c88b" d="M 100.5,259.5 C 102.18,260.782 103.513,262.449 104.5,264.5C 106.175,267.245 107.842,269.912 109.5,272.5C 113.235,279.635 117.235,286.635 121.5,293.5C 121.5,294.5 121.5,295.5 121.5,296.5C 113.744,284.662 106.744,272.328 100.5,259.5 Z"/></g>
<g><path style="opacity:0.996" fill="#0d0e0d" d="M 340.5,267.5 C 345.222,274.23 349.555,281.23 353.5,288.5C 356.925,293.255 359.925,298.255 362.5,303.5C 341.833,303.5 321.167,303.5 300.5,303.5C 247.167,303.5 193.833,303.5 140.5,303.5C 137.167,303.5 133.833,303.5 130.5,303.5C 131.127,299.58 132.793,296.247 135.5,293.5C 135.369,294.239 135.536,294.906 136,295.5C 136.615,293.884 137.615,292.551 139,291.5C 139.617,292.449 139.451,293.282 138.5,294C 139.691,294.698 140.691,295.531 141.5,296.5C 157.009,296.83 172.342,296.496 187.5,295.5C 228.829,294.722 270.162,294.389 311.5,294.5C 323.833,294.5 336.167,294.5 348.5,294.5C 348.715,292.821 348.048,291.821 346.5,291.5C 344.225,287.385 341.725,283.385 339,279.5C 338.605,277.821 338.772,276.155 339.5,274.5C 338.813,272.823 338.146,271.156 337.5,269.5C 337.973,268.094 338.973,267.427 340.5,267.5 Z"/></g>
<g><path style="opacity:1" fill="#2da49e" d="M 394.5,220.5 C 394.414,221.496 394.748,222.329 395.5,223C 393.98,225.54 392.98,228.373 392.5,231.5C 390.951,235.002 388.951,238.335 386.5,241.5C 387.57,243.871 388.736,246.205 390,248.5C 391.333,247.833 392.333,246.833 393,245.5C 393.383,246.056 393.883,246.389 394.5,246.5C 384.069,265.702 373.402,284.702 362.5,303.5C 359.925,298.255 356.925,293.255 353.5,288.5C 354.496,288.586 355.329,288.252 356,287.5C 368.355,264.778 381.188,242.444 394.5,220.5 Z"/></g>
<g><path style="opacity:1" fill="#62ca6b" d="M 121.5,293.5 C 117.235,286.635 113.235,279.635 109.5,272.5C 107.721,268.275 108.721,264.941 112.5,262.5C 115.567,263.947 117.734,266.28 119,269.5C 119.534,273.768 120.867,277.768 123,281.5C 123.333,281.167 123.667,280.833 124,280.5C 128.505,284.172 130.171,288.839 129,294.5C 128,292.833 127,291.167 126,289.5C 125.818,292.226 125.318,294.893 124.5,297.5C 123.141,296.376 122.141,295.042 121.5,293.5 Z"/></g>
<g><path style="opacity:0.339" fill="#909090" d="M 346.5,291.5 C 348.048,291.821 348.715,292.821 348.5,294.5C 336.167,294.5 323.833,294.5 311.5,294.5C 323.326,293.669 335.326,293.169 347.5,293C 346.944,292.617 346.611,292.117 346.5,291.5 Z"/></g>
<g><path style="opacity:0.539" fill="#565656" d="M 142.5,294.5 C 157.324,295.496 172.324,295.829 187.5,295.5C 172.342,296.496 157.009,296.83 141.5,296.5C 141.328,295.508 141.662,294.842 142.5,294.5 Z"/></g>
<g><path style="opacity:1" fill="#6ec676" d="M 88.5,213.5 C 104.145,239.444 119.312,265.777 134,292.5C 134.383,291.944 134.883,291.611 135.5,291.5C 135.5,292.167 135.5,292.833 135.5,293.5C 132.793,296.247 131.127,299.58 130.5,303.5C 133.833,303.5 137.167,303.5 140.5,303.5C 143.528,308.85 146.528,314.184 149.5,319.5C 146.837,317.911 144.837,315.578 143.5,312.5C 142.675,311.614 141.675,311.281 140.5,311.5C 140.649,312.552 140.483,313.552 140,314.5C 139.293,312.919 138.46,311.419 137.5,310C 138.406,308.301 138.739,306.467 138.5,304.5C 134.905,305.386 131.572,306.052 128.5,306.5C 129.752,308.001 130.752,309.668 131.5,311.5C 133.576,312.1 135.576,312.433 137.5,312.5C 136.253,314.323 135.586,316.323 135.5,318.5C 134.732,317.737 134.232,316.737 134,315.5C 133.329,314.748 132.496,314.414 131.5,314.5C 128.167,308.5 124.833,302.5 121.5,296.5C 121.5,295.5 121.5,294.5 121.5,293.5C 122.141,295.042 123.141,296.376 124.5,297.5C 125.318,294.893 125.818,292.226 126,289.5C 127,291.167 128,292.833 129,294.5C 130.171,288.839 128.505,284.172 124,280.5C 123.667,280.833 123.333,281.167 123,281.5C 120.867,277.768 119.534,273.768 119,269.5C 117.734,266.28 115.567,263.947 112.5,262.5C 108.721,264.941 107.721,268.275 109.5,272.5C 107.842,269.912 106.175,267.245 104.5,264.5C 105.833,264.5 107.167,264.5 108.5,264.5C 109.135,261.507 109.301,258.507 109,255.5C 107.538,250.413 105.371,245.746 102.5,241.5C 101.448,241.649 100.448,241.483 99.5,241C 100.76,239.186 100.76,237.353 99.5,235.5C 97.8459,233.176 96.1792,230.842 94.5,228.5C 93.8076,229.025 93.3076,229.692 93,230.5C 92.6667,227.833 92.3333,225.167 92,222.5C 89.7132,219.928 88.5465,216.928 88.5,213.5 Z"/></g>
<g><path style="opacity:0.416" fill="#dfe1e7" d="M 185.5,310.5 C 186.043,310.56 186.376,310.893 186.5,311.5C 182.572,314.923 178.239,317.757 173.5,320C 167.953,320.56 162.953,319.226 158.5,316C 162.542,316.242 166.542,317.076 170.5,318.5C 175.72,316.059 180.72,313.392 185.5,310.5 Z"/></g>
<g><path style="opacity:0.227" fill="#dfe3e7" d="M 212.5,313.5 C 213.043,313.56 213.376,313.893 213.5,314.5C 208.327,318.59 202.66,321.923 196.5,324.5C 192.808,323.628 189.141,322.628 185.5,321.5C 181.87,323.315 178.203,325.149 174.5,327C 172.553,327.991 170.553,328.325 168.5,328C 173.659,325.588 178.659,322.921 183.5,320C 188.443,320.751 193.443,321.084 198.5,321C 203.356,318.74 208.022,316.24 212.5,313.5 Z"/></g>
<g><path style="opacity:0.286" fill="#d3d7db" d="M 153.5,324.5 C 157.173,323.48 160.84,323.98 164.5,326C 160.864,325.681 157.197,325.181 153.5,324.5 Z"/></g>
<g><path style="opacity:1" fill="#46a99a" d="M 300.5,303.5 C 321.167,303.5 341.833,303.5 362.5,303.5C 351.989,322.532 340.989,341.198 329.5,359.5C 329.838,357.146 330.338,354.813 331,352.5C 331.333,352.833 331.667,353.167 332,353.5C 332.449,349.957 333.949,346.957 336.5,344.5C 336.182,343.353 335.516,342.519 334.5,342C 335.261,337.642 336.428,337.475 338,341.5C 339.643,339.01 339.476,336.51 337.5,334C 336.258,333.689 335.258,334.189 334.5,335.5C 333.833,334.5 333.167,333.5 332.5,332.5C 330.851,336.182 328.518,339.182 325.5,341.5C 331.635,329.232 338.302,317.232 345.5,305.5C 330.339,304.833 315.339,304.167 300.5,303.5 Z"/></g>
<g><path style="opacity:0.173" fill="#dae4e9" d="M 216.5,321.5 C 218.549,321.706 218.883,322.539 217.5,324C 212.023,327.24 206.356,330.24 200.5,333C 196.464,333.85 192.631,333.35 189,331.5C 187.274,332.576 185.441,332.743 183.5,332C 181.937,329.524 182.604,328.024 185.5,327.5C 189.649,330.537 194.315,331.704 199.5,331C 205.333,327.97 211,324.803 216.5,321.5 Z"/></g>
<g><path style="opacity:0.792" fill="#c5d9e6" d="M 219.5,328.5 C 223.161,328.35 224.161,329.85 222.5,333C 219.273,332.944 218.273,331.444 219.5,328.5 Z"/></g>
<g><path style="opacity:1" fill="#5ac670" d="M 149.5,319.5 C 151.117,324.308 152.284,329.308 153,334.5C 153.667,333.167 154.333,333.167 155,334.5C 155.495,336.473 155.662,338.473 155.5,340.5C 160.815,340.497 162.815,343.164 161.5,348.5C 159.046,348.321 156.879,348.987 155,350.5C 150.831,346.823 148.831,342.156 149,336.5C 143.163,331.497 138.663,325.497 135.5,318.5C 135.586,316.323 136.253,314.323 137.5,312.5C 135.576,312.433 133.576,312.1 131.5,311.5C 130.752,309.668 129.752,308.001 128.5,306.5C 131.572,306.052 134.905,305.386 138.5,304.5C 138.739,306.467 138.406,308.301 137.5,310C 138.46,311.419 139.293,312.919 140,314.5C 140.483,313.552 140.649,312.552 140.5,311.5C 141.675,311.281 142.675,311.614 143.5,312.5C 144.837,315.578 146.837,317.911 149.5,319.5 Z"/></g>
<g><path style="opacity:1" fill="#bfd7e4" d="M 208.5,334.5 C 212.161,334.35 213.161,335.85 211.5,339C 208.14,339.118 207.14,337.618 208.5,334.5 Z"/></g>
<g><path style="opacity:1" fill="#acf5f4" d="M 181.5,342.5 C 179.621,343.341 177.621,343.675 175.5,343.5C 172.053,341.521 171.72,339.021 174.5,336C 179.835,334.833 182.169,337 181.5,342.5 Z"/></g>
<g><path style="opacity:0.22" fill="#d9e6e6" d="M 169.5,345.5 C 167.967,343.645 166.3,341.812 164.5,340C 167.635,340.308 169.302,342.141 169.5,345.5 Z"/></g>
<g><path style="opacity:1" fill="#69c37f" d="M 131.5,314.5 C 132.496,314.414 133.329,314.748 134,315.5C 134.232,316.737 134.732,317.737 135.5,318.5C 138.663,325.497 143.163,331.497 149,336.5C 148.831,342.156 150.831,346.823 155,350.5C 156.879,348.987 159.046,348.321 161.5,348.5C 162.815,343.164 160.815,340.497 155.5,340.5C 155.662,338.473 155.495,336.473 155,334.5C 154.333,333.167 153.667,333.167 153,334.5C 152.284,329.308 151.117,324.308 149.5,319.5C 156.656,331.138 163.323,343.138 169.5,355.5C 165.358,355.597 163.024,353.597 162.5,349.5C 161.158,351.005 159.492,351.672 157.5,351.5C 158.702,355.048 159.369,358.715 159.5,362.5C 149.677,346.864 140.344,330.864 131.5,314.5 Z"/></g>
<g><path style="opacity:1" fill="#57c375" d="M 169.5,355.5 C 169.321,357.954 169.987,360.121 171.5,362C 170.136,365.443 169.469,365.276 169.5,361.5C 168.5,361.5 167.5,361.5 166.5,361.5C 167.329,364.469 167.495,367.469 167,370.5C 165.385,369.614 163.885,368.614 162.5,367.5C 160.75,366.341 159.75,364.674 159.5,362.5C 159.369,358.715 158.702,355.048 157.5,351.5C 159.492,351.672 161.158,351.005 162.5,349.5C 163.024,353.597 165.358,355.597 169.5,355.5 Z"/></g>
<g><path style="opacity:1" fill="#35ac96" d="M 329.5,359.5 C 327.293,365.35 324.293,370.684 320.5,375.5C 319.624,375.369 318.957,375.702 318.5,376.5C 316.98,378.662 315.98,380.995 315.5,383.5C 313.43,383.449 311.597,384.115 310,385.5C 308.118,384.907 307.118,383.573 307,381.5C 306.226,379.597 306.56,377.93 308,376.5C 308.333,377.167 308.667,377.833 309,378.5C 311.772,375.193 312.272,371.526 310.5,367.5C 314.998,358.499 319.998,349.832 325.5,341.5C 328.518,339.182 330.851,336.182 332.5,332.5C 333.167,333.5 333.833,334.5 334.5,335.5C 335.258,334.189 336.258,333.689 337.5,334C 339.476,336.51 339.643,339.01 338,341.5C 336.428,337.475 335.261,337.642 334.5,342C 335.516,342.519 336.182,343.353 336.5,344.5C 333.949,346.957 332.449,349.957 332,353.5C 331.667,353.167 331.333,352.833 331,352.5C 330.338,354.813 329.838,357.146 329.5,359.5 Z"/></g>
<g><path style="opacity:0.761" fill="#c0f5f5" d="M 217.5,360.5 C 216.833,360.5 216.167,360.5 215.5,360.5C 216.035,354.112 219.202,352.112 225,354.5C 226.469,361.25 223.969,363.25 217.5,360.5 Z"/></g>
<g><path style="opacity:0.341" fill="#e1e9eb" d="M 181.5,342.5 C 181.297,344.39 181.963,345.89 183.5,347C 188.452,348.821 193.452,350.488 198.5,352C 200.833,355.667 203.167,359.333 205.5,363C 209.015,363.087 212.348,362.254 215.5,360.5C 216.167,360.5 216.833,360.5 217.5,360.5C 213.788,363.684 209.455,365.184 204.5,365C 202.081,360.828 199.415,356.828 196.5,353C 191.721,352.074 187.054,350.741 182.5,349C 180.459,346.689 178.125,344.856 175.5,343.5C 177.621,343.675 179.621,343.341 181.5,342.5 Z"/></g>
<g><path style="opacity:0.345" fill="#e0e6e8" d="M 169.5,345.5 C 172.021,349.354 174.688,353.188 177.5,357C 183.223,358.514 188.89,360.18 194.5,362C 198.439,366.223 200.939,371.056 202,376.5C 199.25,372.668 196.75,368.668 194.5,364.5C 188.639,362.032 182.639,359.865 176.5,358C 173.256,354.345 170.922,350.178 169.5,345.5 Z"/></g>
<g><path style="opacity:1" fill="#5dbf80" d="M 169.5,355.5 C 179.241,370.637 188.241,386.304 196.5,402.5C 194.976,401.826 193.642,400.826 192.5,399.5C 191.719,400.729 191.219,402.062 191,403.5C 188.993,399.353 187.826,395.02 187.5,390.5C 186.178,390.67 185.011,390.337 184,389.5C 183.505,387.527 183.338,385.527 183.5,383.5C 181.5,383.5 179.5,383.5 177.5,383.5C 177.481,385.06 177.148,386.56 176.5,388C 179.341,390.835 180.841,394.335 181,398.5C 183.533,401.853 185.367,405.519 186.5,409.5C 177.998,395.834 169.998,381.834 162.5,367.5C 163.885,368.614 165.385,369.614 167,370.5C 167.495,367.469 167.329,364.469 166.5,361.5C 167.5,361.5 168.5,361.5 169.5,361.5C 169.469,365.276 170.136,365.443 171.5,362C 169.987,360.121 169.321,357.954 169.5,355.5 Z"/></g>
<g><path style="opacity:0.184" fill="#d5f3f3" d="M 224.5,362.5 C 229.984,362.481 231.65,364.981 229.5,370C 226.5,370.333 223.5,370.667 220.5,371C 215.553,374.48 210.219,376.813 204.5,378C 209.833,375 215.167,372 220.5,369C 221.719,366.722 223.052,364.555 224.5,362.5 Z"/></g>
<g><path style="opacity:0.212" fill="#d9e3e7" d="M 180.5,368.5 C 182.223,367.193 184.057,367.193 186,368.5C 188.866,372.557 190.866,376.89 192,381.5C 189.667,377.5 187.333,373.5 185,369.5C 183.644,368.62 182.144,368.286 180.5,368.5 Z"/></g>
<g><path style="opacity:0.008" fill="#edf2f2" d="M 193.5,383.5 C 195.085,384.002 195.585,385.002 195,386.5C 193.961,385.756 193.461,384.756 193.5,383.5 Z"/></g>
<g><path style="opacity:0.741" fill="#c8ede8" d="M 216.5,383.5 C 219.166,383.066 220.333,384.066 220,386.5C 217.342,387.694 216.176,386.694 216.5,383.5 Z"/></g>
<g><path style="opacity:0.57" fill="#c5ebeb" d="M 208.5,387.5 C 211.166,387.066 212.333,388.066 212,390.5C 210.817,391.731 209.651,391.731 208.5,390.5C 207.209,389.473 207.209,388.473 208.5,387.5 Z"/></g>
<g><path style="opacity:0.125" fill="#dbe8ea" d="M 196.5,388.5 C 200.679,392.148 201.846,396.481 200,401.5C 199.887,396.849 198.72,392.515 196.5,388.5 Z"/></g>
<g><path style="opacity:1" fill="#cbf0f4" d="M 241.5,395.5 C 243.5,395.5 245.5,395.5 247.5,395.5C 247.703,397.39 247.037,398.89 245.5,400C 241.871,400.314 238.538,401.481 235.5,403.5C 235.167,403.333 234.833,403.167 234.5,403C 237.717,401.285 240.05,398.785 241.5,395.5 Z"/></g>
<g><path style="opacity:0.145" fill="#dfeded" d="M 231.5,403.5 C 233.379,403.393 233.712,403.893 232.5,405C 229.073,406.796 225.906,408.963 223,411.5C 221.382,415.068 220.049,418.735 219,422.5C 217.622,424.213 215.955,425.547 214,426.5C 215.128,424.641 216.461,422.641 218,420.5C 218.876,416.659 220.209,412.993 222,409.5C 225.34,407.637 228.507,405.637 231.5,403.5 Z"/></g>
<g><path style="opacity:1" fill="#42b193" d="M 310.5,367.5 C 312.272,371.526 311.772,375.193 309,378.5C 308.667,377.833 308.333,377.167 308,376.5C 306.56,377.93 306.226,379.597 307,381.5C 307.118,383.573 308.118,384.907 310,385.5C 311.597,384.115 313.43,383.449 315.5,383.5C 315.98,380.995 316.98,378.662 318.5,376.5C 318.957,375.702 319.624,375.369 320.5,375.5C 306.256,402.329 291.256,428.662 275.5,454.5C 275.986,452.193 275.986,450.027 275.5,448C 276.448,447.517 277.448,447.351 278.5,447.5C 278.915,445.253 279.582,443.086 280.5,441C 280.167,440.167 279.833,439.333 279.5,438.5C 278.59,440.655 277.423,442.655 276,444.5C 275.751,443.376 275.251,442.376 274.5,441.5C 269.513,444.822 265.18,448.822 261.5,453.5C 277.331,424.5 293.664,395.833 310.5,367.5 Z"/></g>
<g><path style="opacity:0.278" fill="#b2ede9" d="M 202.5,412.5 C 201.263,411.035 200.263,409.368 199.5,407.5C 201.017,407.489 202.184,406.823 203,405.5C 203.956,406.579 204.789,407.745 205.5,409C 204.29,410.039 203.29,411.206 202.5,412.5 Z"/></g>
<g><path style="opacity:1" fill="#4ebe7c" d="M 196.5,402.5 C 197.105,405.127 197.605,407.793 198,410.5C 198.667,412.5 200,413.833 202,414.5C 201.937,418.442 203.603,421.442 207,423.5C 207.777,426.429 207.61,429.263 206.5,432C 207.516,432.519 208.182,433.353 208.5,434.5C 207.928,436.687 207.928,439.021 208.5,441.5C 207.325,441.719 206.325,441.386 205.5,440.5C 201.332,434.508 197.832,428.175 195,421.5C 194.184,420.177 193.017,419.511 191.5,419.5C 189.308,416.45 187.642,413.117 186.5,409.5C 185.367,405.519 183.533,401.853 181,398.5C 180.841,394.335 179.341,390.835 176.5,388C 177.148,386.56 177.481,385.06 177.5,383.5C 179.5,383.5 181.5,383.5 183.5,383.5C 183.338,385.527 183.505,387.527 184,389.5C 185.011,390.337 186.178,390.67 187.5,390.5C 187.826,395.02 188.993,399.353 191,403.5C 191.219,402.062 191.719,400.729 192.5,399.5C 193.642,400.826 194.976,401.826 196.5,402.5 Z"/></g>
<g><path style="opacity:0.457" fill="#d1eff0" d="M 215.5,434.5 C 214.094,434.027 213.427,433.027 213.5,431.5C 214.15,431.804 214.817,432.137 215.5,432.5C 217.655,430.994 219.988,429.994 222.5,429.5C 229.404,430.857 236.238,432.523 243,434.5C 245.847,433.306 248.68,433.306 251.5,434.5C 253.004,437.832 252.004,440.165 248.5,441.5C 246.36,440.527 244.693,439.027 243.5,437C 238.106,435.535 232.772,433.869 227.5,432C 222.978,430.89 218.978,431.723 215.5,434.5 Z"/></g>
<g><path style="opacity:1" fill="#4db78b" d="M 196.5,402.5 C 198.25,403.659 199.25,405.326 199.5,407.5C 200.263,409.368 201.263,411.035 202.5,412.5C 206.567,418.575 210.234,424.909 213.5,431.5C 213.427,433.027 214.094,434.027 215.5,434.5C 220.432,442.699 225.099,451.032 229.5,459.5C 235.508,467.72 243.174,469.553 252.5,465C 256.123,461.551 259.123,457.717 261.5,453.5C 265.18,448.822 269.513,444.822 274.5,441.5C 275.251,442.376 275.751,443.376 276,444.5C 277.423,442.655 278.59,440.655 279.5,438.5C 279.833,439.333 280.167,440.167 280.5,441C 279.582,443.086 278.915,445.253 278.5,447.5C 277.448,447.351 276.448,447.517 275.5,448C 275.986,450.027 275.986,452.193 275.5,454.5C 271.535,466.3 263.868,474.8 252.5,480C 239.535,483.123 228.702,479.623 220,469.5C 210.235,452.969 200.735,436.302 191.5,419.5C 193.017,419.511 194.184,420.177 195,421.5C 197.832,428.175 201.332,434.508 205.5,440.5C 206.325,441.386 207.325,441.719 208.5,441.5C 207.928,439.021 207.928,436.687 208.5,434.5C 208.182,433.353 207.516,432.519 206.5,432C 207.61,429.263 207.777,426.429 207,423.5C 203.603,421.442 201.937,418.442 202,414.5C 200,413.833 198.667,412.5 198,410.5C 197.605,407.793 197.105,405.127 196.5,402.5 Z"/></g>
<g><path style="opacity:0.09" fill="#dcebeb" d="M 249.5,451.5 C 251.379,451.393 251.712,451.893 250.5,453C 247.125,453.632 246.791,453.132 249.5,451.5 Z"/></g>
<g><path style="opacity:1" fill="#43ba81" d="M 229.5,459.5 C 230.261,463.116 231.761,466.45 234,469.5C 234.333,469.167 234.667,468.833 235,468.5C 235.772,469.849 236.939,470.682 238.5,471C 241.167,471.333 243.833,471.667 246.5,472C 248.956,473.711 251.623,475.044 254.5,476C 247.271,479.391 239.938,479.725 232.5,477C 231.155,472.653 228.155,470.82 223.5,471.5C 223.67,470.178 223.337,469.011 222.5,468C 223.938,467.781 225.271,467.281 226.5,466.5C 224.999,465.248 223.332,464.248 221.5,463.5C 220.749,462.624 220.249,461.624 220,460.5C 219.667,460.833 219.333,461.167 219,461.5C 218.228,460.151 217.061,459.318 215.5,459C 214.711,456.635 213.544,454.468 212,452.5C 211.313,450.432 211.48,448.432 212.5,446.5C 207.721,440.571 208.721,438.071 215.5,439C 217.112,443.039 218.612,447.206 220,451.5C 220.497,454.146 220.664,456.813 220.5,459.5C 222.2,459.374 223.7,458.707 225,457.5C 226.585,458.044 228.085,458.711 229.5,459.5 Z"/></g>
</svg>
