<?xml version="1.0" encoding="UTF-8"?>
<!DOCTYPE svg PUBLIC "-//W3C//DTD SVG 1.1//EN" "http://www.w3.org/Graphics/SVG/1.1/DTD/svg11.dtd">
<svg xmlns="http://www.w3.org/2000/svg" version="1.1" width="487px" height="512px" style="shape-rendering:geometricPrecision; text-rendering:geometricPrecision; image-rendering:optimizeQuality; fill-rule:evenodd; clip-rule:evenodd" xmlns:xlink="http://www.w3.org/1999/xlink">
<g><path style="opacity:0.472" fill="#8c89b4" d="M 443.5,86.5 C 423.5,86.5 403.5,86.5 383.5,86.5C 374.5,86.5 365.5,86.5 356.5,86.5C 339.167,86.5 321.833,86.5 304.5,86.5C 287.833,86.5 271.167,86.5 254.5,86.5C 238.5,86.5 222.5,86.5 206.5,86.5C 190.833,86.5 175.167,86.5 159.5,86.5C 120.663,86.1681 81.9964,86.5015 43.5,87.5C 40.9823,88.2638 38.649,89.2638 36.5,90.5C 35.8333,90.5 35.1667,90.5 34.5,90.5C 36.6489,88.2542 39.3156,86.7542 42.5,86C 176.334,85.1673 310.001,85.334 443.5,86.5 Z"/></g>
<g><path style="opacity:0.004" fill="#fefffe" d="M 448.5,86.5 C 449.833,87.1667 449.833,87.1667 448.5,86.5 Z"/></g>
<g><path style="opacity:1" fill="#22207f" d="M 43.5,87.5 C 81.9964,86.5015 120.663,86.1681 159.5,86.5C 175.327,87.6083 191.327,88.4417 207.5,89C 200.831,89.5699 200.331,90.7365 206,92.5C 209.744,91.374 213.577,91.2073 217.5,92C 214.309,93.0871 210.975,93.9204 207.5,94.5C 209.078,95.2978 210.744,95.7978 212.5,96C 199.993,96.1692 187.66,96.6692 175.5,97.5C 164.833,97.5 154.167,97.5 143.5,97.5C 151.914,96.6206 160.414,95.6206 169,94.5C 169.333,94.8333 169.667,95.1667 170,95.5C 170.903,94.2986 172.069,93.4652 173.5,93C 168.825,92.2029 164.159,91.3696 159.5,90.5C 161.423,89.6922 163.423,89.1922 165.5,89C 131.515,87.673 97.5145,87.173 63.5,87.5C 56.8333,87.5 50.1667,87.5 43.5,87.5 Z"/></g>
<g><path style="opacity:1" fill="#13124b" d="M 282.5,87.5 C 295.17,87.8486 307.837,88.3486 320.5,89C 317.746,90.7475 315.08,91.9142 312.5,92.5C 314.5,93.5 316.5,94.5 318.5,95.5C 307.674,96.1667 297.008,96.8334 286.5,97.5C 276.5,97.5 266.5,97.5 256.5,97.5C 265.658,96.6701 274.991,96.1701 284.5,96C 282.034,95.0703 282.201,94.237 285,93.5C 287.586,94.4892 289.919,95.1559 292,95.5C 293.419,94.5399 294.919,93.7065 296.5,93C 293.7,91.7681 290.7,91.1015 287.5,91C 286.366,89.984 286.699,89.3173 288.5,89C 286.292,88.8091 284.292,88.3091 282.5,87.5 Z"/></g>
<g><path style="opacity:1" fill="#100f3e" d="M 254.5,86.5 C 271.167,86.5 287.833,86.5 304.5,86.5C 314.992,87.3304 325.659,87.8304 336.5,88C 337.833,88.3333 339.167,88.6667 340.5,89C 339.552,89.4828 338.552,89.6495 337.5,89.5C 337.5,90.8333 337.5,92.1667 337.5,93.5C 341.945,93.7203 346.278,94.5536 350.5,96C 339.992,96.1697 329.659,96.6697 319.5,97.5C 308.5,97.5 297.5,97.5 286.5,97.5C 297.008,96.8334 307.674,96.1667 318.5,95.5C 316.5,94.5 314.5,93.5 312.5,92.5C 315.08,91.9142 317.746,90.7475 320.5,89C 307.837,88.3486 295.17,87.8486 282.5,87.5C 272.985,87.8269 263.652,87.4936 254.5,86.5 Z"/></g>
<g><path style="opacity:1" fill="#0c0b31" d="M 304.5,86.5 C 321.833,86.5 339.167,86.5 356.5,86.5C 360.427,87.1378 364.427,87.9711 368.5,89C 365.933,89.2188 363.267,90.0521 360.5,91.5C 362.289,92.8772 364.289,93.8772 366.5,94.5C 368.198,93.3192 369.865,93.3192 371.5,94.5C 364.775,95.9383 358.109,96.9383 351.5,97.5C 340.833,97.5 330.167,97.5 319.5,97.5C 329.659,96.6697 339.992,96.1697 350.5,96C 346.278,94.5536 341.945,93.7203 337.5,93.5C 337.5,92.1667 337.5,90.8333 337.5,89.5C 338.552,89.6495 339.552,89.4828 340.5,89C 339.167,88.6667 337.833,88.3333 336.5,88C 325.659,87.8304 314.992,87.3304 304.5,86.5 Z"/></g>
<g><path style="opacity:1" fill="#090823" d="M 356.5,86.5 C 365.5,86.5 374.5,86.5 383.5,86.5C 383.5,87.1667 383.833,87.5 384.5,87.5C 388.996,88.914 393.662,89.7473 398.5,90C 399.641,90.7412 399.641,91.5745 398.5,92.5C 395.816,92.9755 393.483,93.9755 391.5,95.5C 383.343,96.1667 375.343,96.8334 367.5,97.5C 362.167,97.5 356.833,97.5 351.5,97.5C 358.109,96.9383 364.775,95.9383 371.5,94.5C 369.865,93.3192 368.198,93.3192 366.5,94.5C 364.289,93.8772 362.289,92.8772 360.5,91.5C 363.267,90.0521 365.933,89.2188 368.5,89C 364.427,87.9711 360.427,87.1378 356.5,86.5 Z"/></g>
<g><path style="opacity:1" fill="#0d0d1c" d="M 384.5,87.5 C 397.219,87.1024 409.886,87.6024 422.5,89C 423.672,89.4186 424.672,90.0853 425.5,91C 423.947,92.0968 422.614,93.4301 421.5,95C 417.531,95.8527 413.531,96.5193 409.5,97C 418.343,97.1704 427.01,97.6704 435.5,98.5C 412.833,98.5 390.167,98.5 367.5,98.5C 367.5,98.1667 367.5,97.8333 367.5,97.5C 375.343,96.8334 383.343,96.1667 391.5,95.5C 393.483,93.9755 395.816,92.9755 398.5,92.5C 399.641,91.5745 399.641,90.7412 398.5,90C 393.662,89.7473 388.996,88.914 384.5,87.5 Z"/></g>
<g><path style="opacity:1" fill="#2d2bab" d="M 43.5,87.5 C 50.1667,87.5 56.8333,87.5 63.5,87.5C 78.9946,88.3314 94.6613,88.8314 110.5,89C 105.941,89.3114 105.608,90.1448 109.5,91.5C 111.473,90.6689 113.473,90.5022 115.5,91C 111.856,92.8303 112.19,94.4969 116.5,96C 107.657,96.1704 98.9903,96.6704 90.5,97.5C 75.9903,97.1707 61.6569,97.5041 47.5,98.5C 45.8828,99.038 44.2161,99.3713 42.5,99.5C 43.347,98.0337 44.6803,97.2004 46.5,97C 50.1667,96.6667 53.8333,96.3333 57.5,96C 56.8333,95.6667 56.1667,95.3333 55.5,95C 60.0298,94.1206 64.3631,92.7872 68.5,91C 66.2865,90.3744 64.1199,90.5411 62,91.5C 60.7202,91.3865 59.8869,90.7199 59.5,89.5C 51.7417,88.1311 44.075,88.4644 36.5,90.5C 38.649,89.2638 40.9823,88.2638 43.5,87.5 Z"/></g>
<g><path style="opacity:1" fill="#1c1b6c" d="M 159.5,86.5 C 175.167,86.5 190.833,86.5 206.5,86.5C 221.016,87.2218 235.683,88.0551 250.5,89C 249.167,89.3333 247.833,89.6667 246.5,90C 250.099,91.0139 253.765,91.8473 257.5,92.5C 255.034,93.1235 252.701,93.9568 250.5,95C 251.833,95.3333 253.167,95.6667 254.5,96C 248.167,96.6667 241.833,96.6667 235.5,96C 235.833,95.6667 236.167,95.3333 236.5,95C 232.375,93.8932 228.709,94.5599 225.5,97C 208.837,97.4999 192.17,97.6666 175.5,97.5C 187.66,96.6692 199.993,96.1692 212.5,96C 210.744,95.7978 209.078,95.2978 207.5,94.5C 210.975,93.9204 214.309,93.0871 217.5,92C 213.577,91.2073 209.744,91.374 206,92.5C 200.331,90.7365 200.831,89.5699 207.5,89C 191.327,88.4417 175.327,87.6083 159.5,86.5 Z"/></g>
<g><path style="opacity:1" fill="#211f60" d="M 206.5,86.5 C 222.5,86.5 238.5,86.5 254.5,86.5C 263.652,87.4936 272.985,87.8269 282.5,87.5C 284.292,88.3091 286.292,88.8091 288.5,89C 286.699,89.3173 286.366,89.984 287.5,91C 290.7,91.1015 293.7,91.7681 296.5,93C 294.919,93.7065 293.419,94.5399 292,95.5C 289.919,95.1559 287.586,94.4892 285,93.5C 282.201,94.237 282.034,95.0703 284.5,96C 274.991,96.1701 265.658,96.6701 256.5,97.5C 248.833,97.5 241.167,97.5 233.5,97.5C 231.304,95.2195 229.304,95.5528 227.5,98.5C 167.5,98.5 107.5,98.5 47.5,98.5C 61.6569,97.5041 75.9903,97.1707 90.5,97.5C 108.167,97.5 125.833,97.5 143.5,97.5C 154.167,97.5 164.833,97.5 175.5,97.5C 192.17,97.6666 208.837,97.4999 225.5,97C 228.709,94.5599 232.375,93.8932 236.5,95C 236.167,95.3333 235.833,95.6667 235.5,96C 241.833,96.6667 248.167,96.6667 254.5,96C 253.167,95.6667 251.833,95.3333 250.5,95C 252.701,93.9568 255.034,93.1235 257.5,92.5C 253.765,91.8473 250.099,91.0139 246.5,90C 247.833,89.6667 249.167,89.3333 250.5,89C 235.683,88.0551 221.016,87.2218 206.5,86.5 Z"/></g>
<g><path style="opacity:1" fill="#262594" d="M 63.5,87.5 C 97.5145,87.173 131.515,87.673 165.5,89C 163.423,89.1922 161.423,89.6922 159.5,90.5C 164.159,91.3696 168.825,92.2029 173.5,93C 172.069,93.4652 170.903,94.2986 170,95.5C 169.667,95.1667 169.333,94.8333 169,94.5C 160.414,95.6206 151.914,96.6206 143.5,97.5C 125.833,97.5 108.167,97.5 90.5,97.5C 98.9903,96.6704 107.657,96.1704 116.5,96C 112.19,94.4969 111.856,92.8303 115.5,91C 113.473,90.5022 111.473,90.6689 109.5,91.5C 105.608,90.1448 105.941,89.3114 110.5,89C 94.6613,88.8314 78.9946,88.3314 63.5,87.5 Z"/></g>
<g><path style="opacity:1" fill="#100f13" d="M 383.5,86.5 C 403.5,86.5 423.5,86.5 443.5,86.5C 445.117,87.038 446.784,87.3713 448.5,87.5C 450.205,89.1921 452.205,90.5254 454.5,91.5C 455.5,92.8333 456.5,94.1667 457.5,95.5C 457.738,97.4044 458.738,98.7377 460.5,99.5C 461.338,99.8417 461.672,100.508 461.5,101.5C 464.036,107.906 465.036,114.573 464.5,121.5C 462.926,123.102 462.259,125.102 462.5,127.5C 462.008,129.819 461.008,131.819 459.5,133.5C 458.094,133.973 457.427,134.973 457.5,136.5C 457.672,137.492 457.338,138.158 456.5,138.5C 455.094,138.973 454.427,139.973 454.5,141.5C 453.258,145.655 451.258,149.322 448.5,152.5C 446.75,153.659 445.75,155.326 445.5,157.5C 445.672,158.492 445.338,159.158 444.5,159.5C 442.75,160.659 441.75,162.326 441.5,164.5C 441.267,166.062 440.6,167.395 439.5,168.5C 438.094,168.973 437.427,169.973 437.5,171.5C 437.672,172.492 437.338,173.158 436.5,173.5C 435.833,173.833 435.167,174.167 434.5,174.5C 430.286,176.317 426.953,175.317 424.5,171.5C 425.291,168.885 425.957,166.218 426.5,163.5C 426.328,162.508 426.662,161.842 427.5,161.5C 429.408,160.514 430.408,158.848 430.5,156.5C 430.328,155.508 430.662,154.842 431.5,154.5C 432.906,154.027 433.573,153.027 433.5,151.5C 436.46,149.348 438.127,146.348 438.5,142.5C 438.328,141.508 438.662,140.842 439.5,140.5C 441.408,139.514 442.408,137.848 442.5,135.5C 442.66,133.847 443.326,132.514 444.5,131.5C 445.906,131.027 446.573,130.027 446.5,128.5C 446.66,126.847 447.326,125.514 448.5,124.5C 450.176,123.817 450.843,122.483 450.5,120.5C 450.433,119.041 450.766,117.708 451.5,116.5C 452.867,113.988 452.534,111.655 450.5,109.5C 449.662,109.158 449.328,108.492 449.5,107.5C 449.573,105.973 448.906,104.973 447.5,104.5C 445.809,103.136 444.142,101.803 442.5,100.5C 440.562,98.8372 438.228,98.1706 435.5,98.5C 427.01,97.6704 418.343,97.1704 409.5,97C 413.531,96.5193 417.531,95.8527 421.5,95C 422.614,93.4301 423.947,92.0968 425.5,91C 424.672,90.0853 423.672,89.4186 422.5,89C 409.886,87.6024 397.219,87.1024 384.5,87.5C 383.833,87.5 383.5,87.1667 383.5,86.5 Z"/></g>
<g><path style="opacity:0.008" fill="#fefffe" d="M 454.5,90.5 C 455.833,91.1667 455.833,91.1667 454.5,90.5 Z"/></g>
<g><path style="opacity:0.91" fill="#7c75c2" d="M 31.5,92.5 C 30.2901,95.3866 28.2901,97.72 25.5,99.5C 26.7573,96.5726 28.7573,94.2393 31.5,92.5 Z"/></g>
<g><path style="opacity:0.808" fill="#868688" d="M 457.5,95.5 C 459.262,96.2623 460.262,97.5956 460.5,99.5C 458.738,98.7377 457.738,97.4044 457.5,95.5 Z"/></g>
<g><path style="opacity:0.906" fill="#333254" d="M 233.5,97.5 C 241.167,97.5 248.833,97.5 256.5,97.5C 266.5,97.5 276.5,97.5 286.5,97.5C 297.5,97.5 308.5,97.5 319.5,97.5C 330.167,97.5 340.833,97.5 351.5,97.5C 356.833,97.5 362.167,97.5 367.5,97.5C 367.5,97.8333 367.5,98.1667 367.5,98.5C 322.821,97.8385 278.487,98.5052 234.5,100.5C 233.596,99.791 233.263,98.791 233.5,97.5 Z"/></g>
<g><path style="opacity:0.223" fill="#ccccf4" d="M 47.5,98.5 C 107.5,98.5 167.5,98.5 227.5,98.5C 227.672,99.4916 227.338,100.158 226.5,100.5C 166.668,99.3347 106.668,99.1681 46.5,100C 44.8455,100.608 43.1789,101.108 41.5,101.5C 41.3284,100.508 41.6618,99.8417 42.5,99.5C 44.2161,99.3713 45.8828,99.038 47.5,98.5 Z"/></g>
<g><path style="opacity:1" fill="#161616" d="M 233.5,97.5 C 233.263,98.791 233.596,99.791 234.5,100.5C 234.833,101.5 235.5,102.167 236.5,102.5C 237.338,102.842 237.672,103.508 237.5,104.5C 237.427,106.027 238.094,107.027 239.5,107.5C 239.427,109.027 240.094,110.027 241.5,110.5C 242.338,110.842 242.672,111.508 242.5,112.5C 242.427,114.027 243.094,115.027 244.5,115.5C 245.401,116.29 246.068,117.29 246.5,118.5C 246.427,120.027 247.094,121.027 248.5,121.5C 249.737,122.965 250.737,124.632 251.5,126.5C 251.427,128.027 252.094,129.027 253.5,129.5C 254.338,129.842 254.672,130.508 254.5,131.5C 254.427,133.027 255.094,134.027 256.5,134.5C 257.338,134.842 257.672,135.508 257.5,136.5C 257.414,137.496 257.748,138.329 258.5,139C 257.207,139.49 255.873,139.657 254.5,139.5C 252.738,138.738 251.738,137.404 251.5,135.5C 251.573,133.973 250.906,132.973 249.5,132.5C 248.662,132.158 248.328,131.492 248.5,130.5C 248.573,128.973 247.906,127.973 246.5,127.5C 245.833,127.5 245.5,127.167 245.5,126.5C 244.081,125.549 242.415,125.216 240.5,125.5C 239.662,125.158 239.328,124.492 239.5,123.5C 239.573,121.973 238.906,120.973 237.5,120.5C 236.599,119.71 235.932,118.71 235.5,117.5C 235.672,116.508 235.338,115.842 234.5,115.5C 234.489,113.314 233.489,112.481 231.5,113C 230.086,114.993 229.086,117.16 228.5,119.5C 228.5,119.833 228.5,120.167 228.5,120.5C 226.127,122.579 224.794,125.246 224.5,128.5C 224.672,129.492 224.338,130.158 223.5,130.5C 221.461,131.911 220.461,133.911 220.5,136.5C 212.008,154.818 203.008,172.818 193.5,190.5C 192.326,191.514 191.66,192.847 191.5,194.5C 191.34,196.153 190.674,197.486 189.5,198.5C 188.326,199.514 187.66,200.847 187.5,202.5C 187.443,203.609 187.11,204.609 186.5,205.5C 184.461,206.911 183.461,208.911 183.5,211.5C 183.011,212.995 182.345,214.329 181.5,215.5C 179.896,216.287 179.229,217.62 179.5,219.5C 179.011,220.995 178.345,222.329 177.5,223.5C 175.896,224.287 175.229,225.62 175.5,227.5C 168.008,243.818 160.008,259.818 151.5,275.5C 150.326,276.514 149.66,277.847 149.5,279.5C 149.34,281.153 148.674,282.486 147.5,283.5C 146.326,284.514 145.66,285.847 145.5,287.5C 145.443,288.609 145.11,289.609 144.5,290.5C 142.461,291.911 141.461,293.911 141.5,296.5C 167.339,296.831 193.005,296.498 218.5,295.5C 229.5,295.5 240.5,295.5 251.5,295.5C 283.507,295.833 315.507,295.5 347.5,294.5C 347.376,293.893 347.043,293.56 346.5,293.5C 346.5,292.833 346.167,292.5 345.5,292.5C 345.167,291.833 344.833,291.167 344.5,290.5C 344.573,288.973 343.906,287.973 342.5,287.5C 340.917,285.337 339.584,283.004 338.5,280.5C 339.291,278.309 339.291,276.309 338.5,274.5C 337.662,274.158 337.328,273.492 337.5,272.5C 337.715,270.821 337.048,269.821 335.5,269.5C 333.992,267.819 332.992,265.819 332.5,263.5C 331.833,261.181 331.666,258.847 332,256.5C 332.383,257.056 332.883,257.389 333.5,257.5C 334.338,257.842 334.672,258.508 334.5,259.5C 334.427,261.027 335.094,262.027 336.5,262.5C 336.427,264.027 337.094,265.027 338.5,265.5C 339.338,265.842 339.672,266.508 339.5,267.5C 339.427,269.027 340.094,270.027 341.5,270.5C 342.338,270.842 342.672,271.508 342.5,272.5C 342.738,274.404 343.738,275.738 345.5,276.5C 346.674,277.514 347.34,278.847 347.5,280.5C 347.427,282.027 348.094,283.027 349.5,283.5C 349.427,285.027 350.094,286.027 351.5,286.5C 351.427,288.027 352.094,289.027 353.5,289.5C 354.167,288.833 354.833,288.167 355.5,287.5C 354.486,293.815 356.82,298.149 362.5,300.5C 362.5,301.167 362.5,301.833 362.5,302.5C 361.685,303.429 360.852,304.429 360,305.5C 359.329,304.748 358.496,304.414 357.5,304.5C 354.482,304.335 351.482,304.502 348.5,305C 347.281,306.795 346.281,306.628 345.5,304.5C 338.833,304.5 332.167,304.5 325.5,304.5C 297.833,304.5 270.167,304.5 242.5,304.5C 208.337,303.502 174.004,303.168 139.5,303.5C 136.833,303.5 134.167,303.5 131.5,303.5C 131.924,299.988 132.924,296.655 134.5,293.5C 134.5,293.167 134.5,292.833 134.5,292.5C 134.263,291.209 134.596,290.209 135.5,289.5C 137.176,288.817 137.843,287.483 137.5,285.5C 140.563,278.374 143.896,271.374 147.5,264.5C 149.104,263.713 149.771,262.38 149.5,260.5C 150.906,260.027 151.573,259.027 151.5,257.5C 153.712,250.745 156.712,244.412 160.5,238.5C 162.213,237.365 162.88,235.698 162.5,233.5C 164.326,228.516 166.659,223.849 169.5,219.5C 170.674,218.486 171.34,217.153 171.5,215.5C 171.557,214.391 171.89,213.391 172.5,212.5C 174.104,211.713 174.771,210.38 174.5,208.5C 176.326,203.516 178.659,198.849 181.5,194.5C 183.008,192.819 184.008,190.819 184.5,188.5C 184.557,187.391 184.89,186.391 185.5,185.5C 187.176,184.817 187.843,183.483 187.5,181.5C 188.659,177.849 190.326,174.515 192.5,171.5C 193.338,171.158 193.672,170.492 193.5,169.5C 193.328,168.508 193.662,167.842 194.5,167.5C 195.674,166.486 196.34,165.153 196.5,163.5C 197.382,159.407 199.049,155.74 201.5,152.5C 202.338,152.158 202.672,151.492 202.5,150.5C 205.597,143.309 208.93,136.309 212.5,129.5C 213.906,129.027 214.573,128.027 214.5,126.5C 214.5,126.167 214.5,125.833 214.5,125.5C 215.338,125.158 215.672,124.492 215.5,123.5C 216.659,119.849 218.326,116.515 220.5,113.5C 221.674,112.486 222.34,111.153 222.5,109.5C 222.796,107.597 223.463,105.93 224.5,104.5C 226.104,103.713 226.771,102.38 226.5,100.5C 227.338,100.158 227.672,99.4916 227.5,98.5C 229.304,95.5528 231.304,95.2195 233.5,97.5 Z M 343.5,290.5 C 343.833,290.5 344.167,290.5 344.5,290.5C 344.833,291.167 345.167,291.833 345.5,292.5C 344.167,292.5 343.5,291.833 343.5,290.5 Z"/></g>
<g><path style="opacity:0.215" fill="#c7c7d6" d="M 367.5,98.5 C 390.167,98.5 412.833,98.5 435.5,98.5C 438.228,98.1706 440.562,98.8372 442.5,100.5C 373.528,99.3433 304.528,99.1767 235.5,100C 236.252,100.671 236.586,101.504 236.5,102.5C 235.5,102.167 234.833,101.5 234.5,100.5C 278.487,98.5052 322.821,97.8385 367.5,98.5 Z"/></g>
<g><path style="opacity:0.004" fill="#fefffe" d="M 462.5,100.5 C 463.833,101.167 463.833,101.167 462.5,100.5 Z"/></g>
<g><path style="opacity:0.192" fill="#cfcfd1" d="M 226.5,100.5 C 226.771,102.38 226.104,103.713 224.5,104.5C 224.66,102.847 225.326,101.514 226.5,100.5 Z"/></g>
<g><path style="opacity:0.004" fill="#cdcdcd" d="M 447.5,104.5 C 448.906,104.973 449.573,105.973 449.5,107.5C 448.094,107.027 447.427,106.027 447.5,104.5 Z"/></g>
<g><path style="opacity:0.396" fill="#a1a1a0" d="M 237.5,104.5 C 238.906,104.973 239.573,105.973 239.5,107.5C 238.094,107.027 237.427,106.027 237.5,104.5 Z"/></g>
<g><path style="opacity:0.263" fill="#b9b9b6" d="M 239.5,107.5 C 240.906,107.973 241.573,108.973 241.5,110.5C 240.094,110.027 239.427,109.027 239.5,107.5 Z"/></g>
<g><path style="opacity:0.149" fill="#c0bfc0" d="M 222.5,109.5 C 222.34,111.153 221.674,112.486 220.5,113.5C 220.229,111.62 220.896,110.287 222.5,109.5 Z"/></g>
<g><path style="opacity:0.78" fill="#656567" d="M 450.5,109.5 C 452.534,111.655 452.867,113.988 451.5,116.5C 451.326,114.139 450.993,111.806 450.5,109.5 Z"/></g>
<g><path style="opacity:1" fill="#3632c3" d="M 42.5,99.5 C 41.6618,99.8417 41.3284,100.508 41.5,101.5C 40.8333,102.833 39.8333,103.833 38.5,104.5C 34.2755,108.506 32.6089,113.506 33.5,119.5C 33.5,121.167 33.5,122.833 33.5,124.5C 32.5,124.5 31.5,124.5 30.5,124.5C 30.5,125.5 30.5,126.5 30.5,127.5C 31.675,127.281 32.675,127.614 33.5,128.5C 32.2094,129.825 30.8761,131.158 29.5,132.5C 28.7189,131.271 28.2189,129.938 28,128.5C 27.6667,129.167 27.3333,129.833 27,130.5C 26.7679,129.263 26.2679,128.263 25.5,127.5C 25.5,126.833 25.1667,126.5 24.5,126.5C 23.5426,122.906 22.8759,119.24 22.5,115.5C 23.4996,110.167 24.4996,104.834 25.5,99.5C 28.2901,97.72 30.2901,95.3866 31.5,92.5C 31.9731,91.0937 32.9731,90.427 34.5,90.5C 35.1667,90.5 35.8333,90.5 36.5,90.5C 44.075,88.4644 51.7417,88.1311 59.5,89.5C 59.8869,90.7199 60.7202,91.3865 62,91.5C 64.1199,90.5411 66.2865,90.3744 68.5,91C 64.3631,92.7872 60.0298,94.1206 55.5,95C 56.1667,95.3333 56.8333,95.6667 57.5,96C 53.8333,96.3333 50.1667,96.6667 46.5,97C 44.6803,97.2004 43.347,98.0337 42.5,99.5 Z"/></g>
<g><path style="opacity:0.447" fill="#9d9cd5" d="M 38.5,104.5 C 36.4971,107.685 35.1638,111.185 34.5,115C 35.2065,118.285 36.2065,121.452 37.5,124.5C 35.9263,123.016 34.593,121.349 33.5,119.5C 32.6089,113.506 34.2755,108.506 38.5,104.5 Z"/></g>
<g><path style="opacity:0.373" fill="#a6a6a6" d="M 242.5,112.5 C 243.906,112.973 244.573,113.973 244.5,115.5C 243.094,115.027 242.427,114.027 242.5,112.5 Z"/></g>
<g><path style="opacity:0.275" fill="#c7c7c7" d="M 461.5,101.5 C 461.833,101.5 462.167,101.5 462.5,101.5C 465.463,108.052 466.13,114.719 464.5,121.5C 465.036,114.573 464.036,107.906 461.5,101.5 Z"/></g>
<g><path style="opacity:0.263" fill="#c6c7f0" d="M 23.5,102.5 C 21.8986,108.711 21.2319,115.044 21.5,121.5C 19.8255,114.942 20.4922,108.609 23.5,102.5 Z"/></g>
<g><path style="opacity:0.012" fill="#ebebeb" d="M 233.5,115.5 C 233.833,116.833 234.167,116.833 234.5,115.5C 235.338,115.842 235.672,116.508 235.5,117.5C 234.325,117.719 233.325,117.386 232.5,116.5C 232.624,115.893 232.957,115.56 233.5,115.5 Z"/></g>
<g><path style="opacity:0.251" fill="#bebebe" d="M 234.5,115.5 C 234.167,115.5 233.833,115.5 233.5,115.5C 233.44,114.957 233.107,114.624 232.5,114.5C 231.388,116.419 230.054,118.086 228.5,119.5C 229.086,117.16 230.086,114.993 231.5,113C 233.489,112.481 234.489,113.314 234.5,115.5 Z"/></g>
<g><path style="opacity:0.906" fill="#443da7" d="M 25.5,99.5 C 24.4996,104.834 23.4996,110.167 22.5,115.5C 22.8759,119.24 23.5426,122.906 24.5,126.5C 23.6873,124.739 22.6873,123.072 21.5,121.5C 21.2319,115.044 21.8986,108.711 23.5,102.5C 23.9321,101.29 24.5987,100.29 25.5,99.5 Z"/></g>
<g><path style="opacity:0.231" fill="#c2c2c2" d="M 246.5,118.5 C 247.906,118.973 248.573,119.973 248.5,121.5C 247.094,121.027 246.427,120.027 246.5,118.5 Z"/></g>
<g><path style="opacity:0.149" fill="#c2c2c2" d="M 237.5,120.5 C 238.906,120.973 239.573,121.973 239.5,123.5C 238.094,123.027 237.427,122.027 237.5,120.5 Z"/></g>
<g><path style="opacity:0.008" fill="#ebebeb" d="M 215.5,123.5 C 215.672,124.492 215.338,125.158 214.5,125.5C 212.969,124.075 213.302,123.409 215.5,123.5 Z"/></g>
<g><path style="opacity:0.906" fill="#7e7e80" d="M 450.5,120.5 C 450.843,122.483 450.176,123.817 448.5,124.5C 448.66,122.847 449.326,121.514 450.5,120.5 Z"/></g>
<g><path style="opacity:0.545" fill="#979797" d="M 464.5,121.5 C 464.405,123.786 463.738,125.786 462.5,127.5C 462.259,125.102 462.926,123.102 464.5,121.5 Z"/></g>
<g><path style="opacity:0.129" fill="#b5b5b5" d="M 240.5,125.5 C 242.415,125.216 244.081,125.549 245.5,126.5C 244.178,126.33 243.011,126.663 242,127.5C 241.283,126.956 240.783,126.289 240.5,125.5 Z"/></g>
<g><path style="opacity:0.976" fill="#968ece" d="M 21.5,121.5 C 22.6873,123.072 23.6873,124.739 24.5,126.5C 25.1667,126.5 25.5,126.833 25.5,127.5C 25.5,128.833 25.5,130.167 25.5,131.5C 23.0849,128.66 21.7516,125.327 21.5,121.5 Z"/></g>
<g><path style="opacity:0.251" fill="#b7b7b7" d="M 228.5,120.5 C 227.674,123.485 226.341,126.151 224.5,128.5C 224.794,125.246 226.127,122.579 228.5,120.5 Z"/></g>
<g><path style="opacity:0.278" fill="#acacac" d="M 214.5,126.5 C 214.573,128.027 213.906,129.027 212.5,129.5C 212.427,127.973 213.094,126.973 214.5,126.5 Z"/></g>
<g><path style="opacity:0.008" fill="#cdcdcd" d="M 246.5,127.5 C 247.906,127.973 248.573,128.973 248.5,130.5C 247.094,130.027 246.427,129.027 246.5,127.5 Z"/></g>
<g><path style="opacity:0.216" fill="#c8c8c8" d="M 251.5,126.5 C 252.906,126.973 253.573,127.973 253.5,129.5C 252.094,129.027 251.427,128.027 251.5,126.5 Z"/></g>
<g><path style="opacity:0.2" fill="#c4c4c4" d="M 446.5,128.5 C 446.573,130.027 445.906,131.027 444.5,131.5C 444.427,129.973 445.094,128.973 446.5,128.5 Z"/></g>
<g><path style="opacity:0.31" fill="#b2b2b2" d="M 223.5,130.5 C 223.008,132.819 222.008,134.819 220.5,136.5C 220.461,133.911 221.461,131.911 223.5,130.5 Z"/></g>
<g><path style="opacity:0.341" fill="#adadad" d="M 254.5,131.5 C 255.906,131.973 256.573,132.973 256.5,134.5C 255.094,134.027 254.427,133.027 254.5,131.5 Z"/></g>
<g><path style="opacity:0.898" fill="#6f65b8" d="M 39.5,128.5 C 41.588,130.336 42.9213,132.669 43.5,135.5C 43.5,136.167 43.5,136.833 43.5,137.5C 42.1667,135.833 40.8333,134.167 39.5,132.5C 39.5,131.167 39.5,129.833 39.5,128.5 Z"/></g>
<g><path style="opacity:0.188" fill="#bdbdbd" d="M 249.5,132.5 C 250.906,132.973 251.573,133.973 251.5,135.5C 250.094,135.027 249.427,134.027 249.5,132.5 Z"/></g>
<g><path style="opacity:0.816" fill="#a19cd3" d="M 27.5,135.5 C 29.0481,135.821 29.7148,136.821 29.5,138.5C 28.5987,137.71 27.9321,136.71 27.5,135.5 Z"/></g>
<g><path style="opacity:0.086" fill="#cfcfcf" d="M 459.5,133.5 C 459.573,135.027 458.906,136.027 457.5,136.5C 457.427,134.973 458.094,133.973 459.5,133.5 Z"/></g>
<g><path style="opacity:0.176" fill="#d3d0f4" d="M 43.5,135.5 C 44.9063,135.973 45.573,136.973 45.5,138.5C 44.8333,138.167 44.1667,137.833 43.5,137.5C 43.5,136.833 43.5,136.167 43.5,135.5 Z"/></g>
<g><path style="opacity:0.976" fill="#707070" d="M 257.5,136.5 C 261.016,138.118 261.183,139.785 258,141.5C 256.541,141.192 255.374,140.525 254.5,139.5C 255.873,139.657 257.207,139.49 258.5,139C 257.748,138.329 257.414,137.496 257.5,136.5 Z"/></g>
<g><path style="opacity:0.988" fill="#78767b" d="M 442.5,135.5 C 442.408,137.848 441.408,139.514 439.5,140.5C 439.75,138.326 440.75,136.659 442.5,135.5 Z"/></g>
<g><path style="opacity:0.22" fill="#c7c3f1" d="M 29.5,138.5 C 31.2503,139.659 32.2503,141.326 32.5,143.5C 30.7497,142.341 29.7497,140.674 29.5,138.5 Z"/></g>
<g><path style="opacity:0.2" fill="#bfbfc0" d="M 456.5,138.5 C 456.573,140.027 455.906,141.027 454.5,141.5C 454.427,139.973 455.094,138.973 456.5,138.5 Z"/></g>
<g><path style="opacity:1" fill="#3230c4" d="M 39.5,132.5 C 40.8333,134.167 42.1667,135.833 43.5,137.5C 43.5,139.5 43.5,141.5 43.5,143.5C 42.5,143.5 41.5,143.5 40.5,143.5C 40.5,144.5 40.5,145.5 40.5,146.5C 39.1779,146.33 38.0113,146.663 37,147.5C 35.153,143.806 33.3196,140.139 31.5,136.5C 32.065,134.595 33.065,132.929 34.5,131.5C 36.2652,132.026 37.9319,132.359 39.5,132.5 Z"/></g>
<g><path style="opacity:0.173" fill="#cfd0f6" d="M 47.5,142.5 C 48.9063,142.973 49.573,143.973 49.5,145.5C 48.0937,145.027 47.427,144.027 47.5,142.5 Z"/></g>
<g><path style="opacity:0.204" fill="#c9c9f2" d="M 33.5,145.5 C 35.2503,146.659 36.2503,148.326 36.5,150.5C 34.7497,149.341 33.7497,147.674 33.5,145.5 Z"/></g>
<g><path style="opacity:0.992" fill="#56565a" d="M 438.5,142.5 C 438.127,146.348 436.46,149.348 433.5,151.5C 434.41,148.008 436.076,145.008 438.5,142.5 Z"/></g>
<g><path style="opacity:0.004" fill="#e7e7e7" d="M 202.5,150.5 C 202.672,151.492 202.338,152.158 201.5,152.5C 199.969,151.075 200.302,150.409 202.5,150.5 Z"/></g>
<g><path style="opacity:0.184" fill="#cbccf5" d="M 51.5,149.5 C 52.9063,149.973 53.573,150.973 53.5,152.5C 52.0937,152.027 51.427,151.027 51.5,149.5 Z"/></g>
<g><path style="opacity:1" fill="#5b52b3" d="M 45.5,138.5 C 46.6737,139.514 47.3404,140.847 47.5,142.5C 47.427,144.027 48.0937,145.027 49.5,145.5C 50.6737,146.514 51.3404,147.847 51.5,149.5C 51.427,151.027 52.0937,152.027 53.5,152.5C 54.6737,153.514 55.3404,154.847 55.5,156.5C 54.5,156.5 53.5,156.5 52.5,156.5C 51.3876,152.03 49.3876,148.03 46.5,144.5C 45.8444,142.547 45.5111,140.547 45.5,138.5 Z"/></g>
<g><path style="opacity:0.302" fill="#ababaf" d="M 433.5,151.5 C 433.573,153.027 432.906,154.027 431.5,154.5C 431.427,152.973 432.094,151.973 433.5,151.5 Z"/></g>
<g><path style="opacity:0.208" fill="#cac7f1" d="M 37.5,152.5 C 39.2503,153.659 40.2503,155.326 40.5,157.5C 38.7497,156.341 37.7497,154.674 37.5,152.5 Z"/></g>
<g><path style="opacity:0.188" fill="#c3c3c4" d="M 448.5,152.5 C 448.25,154.674 447.25,156.341 445.5,157.5C 445.75,155.326 446.75,153.659 448.5,152.5 Z"/></g>
<g><path style="opacity:0.957" fill="#7b73be" d="M 55.5,156.5 C 57.588,158.336 58.9213,160.669 59.5,163.5C 56.4098,162.335 55.0764,160.002 55.5,156.5 Z"/></g>
<g><path style="opacity:0.984" fill="#757578" d="M 430.5,156.5 C 430.408,158.848 429.408,160.514 427.5,161.5C 427.75,159.326 428.75,157.659 430.5,156.5 Z"/></g>
<g><path style="opacity:0.188" fill="#ccccf2" d="M 41.5,159.5 C 43.2503,160.659 44.2503,162.326 44.5,164.5C 42.7497,163.341 41.7497,161.674 41.5,159.5 Z"/></g>
<g><path style="opacity:0.169" fill="#c7c7ca" d="M 444.5,159.5 C 444.25,161.674 443.25,163.341 441.5,164.5C 441.75,162.326 442.75,160.659 444.5,159.5 Z"/></g>
<g><path style="opacity:0.141" fill="#bcbcbc" d="M 196.5,163.5 C 196.34,165.153 195.674,166.486 194.5,167.5C 194.229,165.62 194.896,164.287 196.5,163.5 Z"/></g>
<g><path style="opacity:0.239" fill="#bcbbf0" d="M 60.5,165.5 C 61.9063,165.973 62.573,166.973 62.5,168.5C 61.0937,168.027 60.427,167.027 60.5,165.5 Z"/></g>
<g><path style="opacity:0.184" fill="#cccaed" d="M 45.5,166.5 C 47.2503,167.659 48.2503,169.326 48.5,171.5C 46.7497,170.341 45.7497,168.674 45.5,166.5 Z"/></g>
<g><path style="opacity:0.999" fill="#4d4d52" d="M 426.5,163.5 C 425.957,166.218 425.291,168.885 424.5,171.5C 423.391,171.557 422.391,171.89 421.5,172.5C 422.41,169.008 424.076,166.008 426.5,163.5 Z"/></g>
<g><path style="opacity:0.071" fill="#d3d3d3" d="M 193.5,169.5 C 193.672,170.492 193.338,171.158 192.5,171.5C 190.969,170.075 191.302,169.409 193.5,169.5 Z"/></g>
<g><path style="opacity:0.118" fill="#cfcfd3" d="M 439.5,168.5 C 439.573,170.027 438.906,171.027 437.5,171.5C 437.427,169.973 438.094,168.973 439.5,168.5 Z"/></g>
<g><path style="opacity:1" fill="#15151d" d="M 424.5,171.5 C 426.953,175.317 430.286,176.317 434.5,174.5C 434.5,175.167 434.5,175.833 434.5,176.5C 434.025,178.784 433.025,180.784 431.5,182.5C 430.094,182.973 429.427,183.973 429.5,185.5C 426.194,186.087 425.194,187.753 426.5,190.5C 420.589,202.663 413.922,214.33 406.5,225.5C 406.096,224.244 405.429,223.077 404.5,222C 407.292,218.715 409.292,215.382 410.5,212C 409.833,211.667 409.167,211.333 408.5,211C 409.787,207.875 409.787,204.709 408.5,201.5C 407.148,202.524 405.815,203.524 404.5,204.5C 404.833,203.167 405.167,201.833 405.5,200.5C 405.328,199.508 405.662,198.842 406.5,198.5C 407.708,197.766 409.041,197.433 410.5,197.5C 410.5,195.5 410.5,193.5 410.5,191.5C 410.328,190.508 410.662,189.842 411.5,189.5C 413.408,188.514 414.408,186.848 414.5,184.5C 414.328,183.508 414.662,182.842 415.5,182.5C 416.906,182.027 417.573,181.027 417.5,179.5C 420.777,177.97 422.11,175.637 421.5,172.5C 422.391,171.89 423.391,171.557 424.5,171.5 Z"/></g>
<g><path style="opacity:0.255" fill="#c4baef" d="M 64.5,172.5 C 65.9063,172.973 66.573,173.973 66.5,175.5C 65.0937,175.027 64.427,174.027 64.5,172.5 Z"/></g>
<g><path style="opacity:0.153" fill="#c2c1c7" d="M 436.5,173.5 C 436.573,175.027 435.906,176.027 434.5,176.5C 434.5,175.833 434.5,175.167 434.5,174.5C 435.167,174.167 435.833,173.833 436.5,173.5 Z"/></g>
<g><path style="opacity:0.125" fill="#d1d0f6" d="M 50.5,175.5 C 51.9063,175.973 52.573,176.973 52.5,178.5C 51.0937,178.027 50.427,177.027 50.5,175.5 Z"/></g>
<g><path style="opacity:1" fill="#56555b" d="M 421.5,172.5 C 422.11,175.637 420.777,177.97 417.5,179.5C 418.079,176.669 419.412,174.336 421.5,172.5 Z"/></g>
<g><path style="opacity:0.275" fill="#bcbae9" d="M 68.5,179.5 C 69.9063,179.973 70.573,180.973 70.5,182.5C 69.0937,182.027 68.427,181.027 68.5,179.5 Z"/></g>
<g><path style="opacity:0.333" fill="#a3a3af" d="M 417.5,179.5 C 417.573,181.027 416.906,182.027 415.5,182.5C 415.427,180.973 416.094,179.973 417.5,179.5 Z"/></g>
<g><path style="opacity:0.165" fill="#cbc9f4" d="M 53.5,180.5 C 54.9744,181.436 55.9744,182.77 56.5,184.5C 56.5,184.833 56.5,185.167 56.5,185.5C 54.7497,184.341 53.7497,182.674 53.5,180.5 Z"/></g>
<g><path style="opacity:0.961" fill="#7c7c7c" d="M 187.5,181.5 C 187.843,183.483 187.176,184.817 185.5,185.5C 185.66,183.847 186.326,182.514 187.5,181.5 Z"/></g>
<g><path style="opacity:0.11" fill="#d1d2d8" d="M 431.5,182.5 C 431.573,184.027 430.906,185.027 429.5,185.5C 429.427,183.973 430.094,182.973 431.5,182.5 Z"/></g>
<g><path style="opacity:1" fill="#473eac" d="M 62.5,168.5 C 63.6737,169.514 64.3404,170.847 64.5,172.5C 64.427,174.027 65.0937,175.027 66.5,175.5C 67.6737,176.514 68.3404,177.847 68.5,179.5C 68.427,181.027 69.0937,182.027 70.5,182.5C 71.6737,183.514 72.3404,184.847 72.5,186.5C 72.427,188.027 73.0937,189.027 74.5,189.5C 75.6737,190.514 76.3404,191.847 76.5,193.5C 75.8333,193.5 75.1667,193.5 74.5,193.5C 74.5858,192.504 74.2524,191.671 73.5,191C 71.416,190.222 69.5827,189.055 68,187.5C 66.4294,181.071 64.5961,174.738 62.5,168.5 Z"/></g>
<g><path style="opacity:0.98" fill="#616165" d="M 429.5,185.5 C 428.89,187.434 427.89,189.101 426.5,190.5C 425.194,187.753 426.194,186.087 429.5,185.5 Z"/></g>
<g><path style="opacity:0.278" fill="#b6b6ec" d="M 72.5,186.5 C 73.9063,186.973 74.573,187.973 74.5,189.5C 73.0937,189.027 72.427,188.027 72.5,186.5 Z"/></g>
<g><path style="opacity:0.965" fill="#74727a" d="M 414.5,184.5 C 414.408,186.848 413.408,188.514 411.5,189.5C 411.75,187.326 412.75,185.659 414.5,184.5 Z"/></g>
<g><path style="opacity:0.145" fill="#cdcbf3" d="M 57.5,187.5 C 59.2503,188.659 60.2503,190.326 60.5,192.5C 58.7497,191.341 57.7497,189.674 57.5,187.5 Z"/></g>
<g><path style="opacity:0.161" fill="#c3c3c3" d="M 184.5,188.5 C 184.008,190.819 183.008,192.819 181.5,194.5C 181.461,191.911 182.461,189.911 184.5,188.5 Z"/></g>
<g><path style="opacity:0.18" fill="#b9b9b9" d="M 193.5,190.5 C 193.771,192.38 193.104,193.713 191.5,194.5C 191.66,192.847 192.326,191.514 193.5,190.5 Z"/></g>
<g><path style="opacity:1" fill="#3933b9" d="M 33.5,119.5 C 34.593,121.349 35.9263,123.016 37.5,124.5C 38.6737,125.514 39.3404,126.847 39.5,128.5C 39.5,129.833 39.5,131.167 39.5,132.5C 37.9319,132.359 36.2652,132.026 34.5,131.5C 33.065,132.929 32.065,134.595 31.5,136.5C 33.3196,140.139 35.153,143.806 37,147.5C 38.0113,146.663 39.1779,146.33 40.5,146.5C 40.5,145.5 40.5,144.5 40.5,143.5C 41.5,143.5 42.5,143.5 43.5,143.5C 43.5,141.5 43.5,139.5 43.5,137.5C 44.1667,137.833 44.8333,138.167 45.5,138.5C 45.5111,140.547 45.8444,142.547 46.5,144.5C 49.3876,148.03 51.3876,152.03 52.5,156.5C 53.5,156.5 54.5,156.5 55.5,156.5C 55.0764,160.002 56.4098,162.335 59.5,163.5C 60.3382,163.842 60.6716,164.508 60.5,165.5C 60.427,167.027 61.0937,168.027 62.5,168.5C 64.5961,174.738 66.4294,181.071 68,187.5C 69.5827,189.055 71.416,190.222 73.5,191C 74.2524,191.671 74.5858,192.504 74.5,193.5C 73.8761,193.917 73.5427,194.584 73.5,195.5C 74.0372,196.741 74.7039,197.908 75.5,199C 74.5279,201.111 73.6946,203.278 73,205.5C 71.172,204.339 69.672,202.839 68.5,201C 69.9526,196.231 69.4526,195.731 67,199.5C 65.7655,196.58 64.7655,193.58 64,190.5C 63.586,190.957 63.086,191.291 62.5,191.5C 61.6858,189.234 61.1858,186.9 61,184.5C 59.5861,185.413 58.0861,185.413 56.5,184.5C 55.9744,182.77 54.9744,181.436 53.5,180.5C 52.6618,180.158 52.3284,179.492 52.5,178.5C 52.573,176.973 51.9063,175.973 50.5,175.5C 49.3263,174.486 48.6596,173.153 48.5,171.5C 48.2503,169.326 47.2503,167.659 45.5,166.5C 44.6618,166.158 44.3284,165.492 44.5,164.5C 44.2503,162.326 43.2503,160.659 41.5,159.5C 40.6618,159.158 40.3284,158.492 40.5,157.5C 40.2503,155.326 39.2503,153.659 37.5,152.5C 36.6618,152.158 36.3284,151.492 36.5,150.5C 36.2503,148.326 35.2503,146.659 33.5,145.5C 32.6618,145.158 32.3284,144.492 32.5,143.5C 32.2503,141.326 31.2503,139.659 29.5,138.5C 29.7148,136.821 29.0481,135.821 27.5,135.5C 26.3263,134.486 25.6596,133.153 25.5,131.5C 25.5,130.167 25.5,128.833 25.5,127.5C 26.2679,128.263 26.7679,129.263 27,130.5C 27.3333,129.833 27.6667,129.167 28,128.5C 28.2189,129.938 28.7189,131.271 29.5,132.5C 30.8761,131.158 32.2094,129.825 33.5,128.5C 32.675,127.614 31.675,127.281 30.5,127.5C 30.5,126.5 30.5,125.5 30.5,124.5C 31.5,124.5 32.5,124.5 33.5,124.5C 33.5,122.833 33.5,121.167 33.5,119.5 Z"/></g>
<g><path style="opacity:1" fill="#4e4c57" d="M 410.5,191.5 C 410.5,193.5 410.5,195.5 410.5,197.5C 409.041,197.433 407.708,197.766 406.5,198.5C 407.079,195.669 408.412,193.336 410.5,191.5 Z"/></g>
<g><path style="opacity:0.278" fill="#c1beea" d="M 76.5,193.5 C 77.9063,193.973 78.573,194.973 78.5,196.5C 78.1667,196.5 77.8333,196.5 77.5,196.5C 76.8902,195.609 76.5569,194.609 76.5,193.5 Z"/></g>
<g><path style="opacity:0.118" fill="#d5d4f4" d="M 62.5,196.5 C 63.9063,196.973 64.573,197.973 64.5,199.5C 63.0937,199.027 62.427,198.027 62.5,196.5 Z"/></g>
<g><path style="opacity:0.082" fill="#e6e0f9" d="M 78.5,196.5 C 79.9063,196.973 80.573,197.973 80.5,199.5C 79.0937,199.027 78.427,198.027 78.5,196.5 Z"/></g>
<g><path style="opacity:1" fill="#9d94d1" d="M 64.5,199.5 C 67.0926,201.008 68.4259,203.341 68.5,206.5C 66.412,204.664 65.0787,202.331 64.5,199.5 Z"/></g>
<g><path style="opacity:0.216" fill="#b5b5b5" d="M 189.5,198.5 C 189.771,200.38 189.104,201.713 187.5,202.5C 187.66,200.847 188.326,199.514 189.5,198.5 Z"/></g>
<g><path style="opacity:0.282" fill="#bebce8" d="M 80.5,200.5 C 81.9063,200.973 82.573,201.973 82.5,203.5C 81.0937,203.027 80.427,202.027 80.5,200.5 Z"/></g>
<g><path style="opacity:0.988" fill="#64656e" d="M 405.5,200.5 C 405.167,201.833 404.833,203.167 404.5,204.5C 404.158,205.338 403.492,205.672 402.5,205.5C 402.75,203.326 403.75,201.659 405.5,200.5 Z"/></g>
<g><path style="opacity:0.992" fill="#9f97d0" d="M 68.5,206.5 C 71.0926,208.008 72.4259,210.341 72.5,213.5C 70.412,211.664 69.0787,209.331 68.5,206.5 Z"/></g>
<g><path style="opacity:0.216" fill="#c1c1c1" d="M 186.5,205.5 C 186.008,207.819 185.008,209.819 183.5,211.5C 183.461,208.911 184.461,206.911 186.5,205.5 Z"/></g>
<g><path style="opacity:1" fill="#48409e" d="M 77.5,196.5 C 77.8333,196.5 78.1667,196.5 78.5,196.5C 78.427,198.027 79.0937,199.027 80.5,199.5C 80.5,199.833 80.5,200.167 80.5,200.5C 80.427,202.027 81.0937,203.027 82.5,203.5C 83.6737,204.514 84.3404,205.847 84.5,207.5C 84.427,209.027 85.0937,210.027 86.5,210.5C 87.6737,211.514 88.3404,212.847 88.5,214.5C 88.427,216.027 89.0937,217.027 90.5,217.5C 91.6737,218.514 92.3404,219.847 92.5,221.5C 91.1779,221.67 90.0113,221.337 89,220.5C 87.4922,216.808 85.4922,213.475 83,210.5C 80.8983,205.912 79.065,201.246 77.5,196.5 Z"/></g>
<g><path style="opacity:0.302" fill="#bebde5" d="M 84.5,207.5 C 85.9063,207.973 86.573,208.973 86.5,210.5C 85.0937,210.027 84.427,209.027 84.5,207.5 Z"/></g>
<g><path style="opacity:0.353" fill="#ababb4" d="M 401.5,207.5 C 401.573,209.027 400.906,210.027 399.5,210.5C 399.427,208.973 400.094,207.973 401.5,207.5 Z"/></g>
<g><path style="opacity:0.129" fill="#dadada" d="M 174.5,208.5 C 174.771,210.38 174.104,211.713 172.5,212.5C 172.66,210.847 173.326,209.514 174.5,208.5 Z"/></g>
<g><path style="opacity:1" fill="#9992cd" d="M 72.5,213.5 C 75.462,215.665 77.1287,218.665 77.5,222.5C 75.4405,219.76 73.7738,216.76 72.5,213.5 Z"/></g>
<g><path style="opacity:0.278" fill="#bbbade" d="M 88.5,214.5 C 89.9063,214.973 90.573,215.973 90.5,217.5C 89.0937,217.027 88.427,216.027 88.5,214.5 Z"/></g>
<g><path style="opacity:0.149" fill="#c0c0c0" d="M 171.5,215.5 C 171.34,217.153 170.674,218.486 169.5,219.5C 169.229,217.62 169.896,216.287 171.5,215.5 Z"/></g>
<g><path style="opacity:0.29" fill="#c3c3c3" d="M 181.5,215.5 C 181.34,217.153 180.674,218.486 179.5,219.5C 179.229,217.62 179.896,216.287 181.5,215.5 Z"/></g>
<g><path style="opacity:0.965" fill="#43444e" d="M 398.5,212.5 C 396.915,215.898 396.249,219.232 396.5,222.5C 395.041,222.433 393.708,222.766 392.5,223.5C 393.742,219.345 395.742,215.678 398.5,212.5 Z"/></g>
<g><path style="opacity:1" fill="#8d86c6" d="M 77.5,222.5 C 78.8149,223.476 80.1482,224.476 81.5,225.5C 83.5123,230.188 85.5123,234.855 87.5,239.5C 83.4137,234.335 80.0804,228.668 77.5,222.5 Z"/></g>
<g><path style="opacity:0.38" fill="#a9a6d9" d="M 93.5,223.5 C 94.9063,223.973 95.573,224.973 95.5,226.5C 94.0937,226.027 93.427,225.027 93.5,223.5 Z"/></g>
<g><path style="opacity:0.29" fill="#b9b9b9" d="M 177.5,223.5 C 177.34,225.153 176.674,226.486 175.5,227.5C 175.229,225.62 175.896,224.287 177.5,223.5 Z"/></g>
<g><path style="opacity:0.431" fill="#95959f" d="M 392.5,223.5 C 392.573,225.027 391.906,226.027 390.5,226.5C 390.427,224.973 391.094,223.973 392.5,223.5 Z"/></g>
<g><path style="opacity:1" fill="#61616b" d="M 405.5,227.5 C 405.25,229.674 404.25,231.341 402.5,232.5C 402.338,230.473 402.505,228.473 403,226.5C 403.671,227.252 404.504,227.586 405.5,227.5 Z"/></g>
<g><path style="opacity:0.953" fill="#6c6b77" d="M 390.5,226.5 C 390.264,229.621 388.931,231.954 386.5,233.5C 387.079,230.669 388.412,228.336 390.5,226.5 Z"/></g>
<g><path style="opacity:0.976" fill="#706f79" d="M 402.5,232.5 C 402.25,234.674 401.25,236.341 399.5,237.5C 399.241,235.011 400.241,233.344 402.5,232.5 Z"/></g>
<g><path style="opacity:1" fill="#302ca5" d="M 56.5,184.5 C 58.0861,185.413 59.5861,185.413 61,184.5C 61.1858,186.9 61.6858,189.234 62.5,191.5C 63.086,191.291 63.586,190.957 64,190.5C 64.7655,193.58 65.7655,196.58 67,199.5C 69.4526,195.731 69.9526,196.231 68.5,201C 69.672,202.839 71.172,204.339 73,205.5C 73.6946,203.278 74.5279,201.111 75.5,199C 74.7039,197.908 74.0372,196.741 73.5,195.5C 73.5427,194.584 73.8761,193.917 74.5,193.5C 75.1667,193.5 75.8333,193.5 76.5,193.5C 76.5569,194.609 76.8902,195.609 77.5,196.5C 79.065,201.246 80.8983,205.912 83,210.5C 85.4922,213.475 87.4922,216.808 89,220.5C 90.0113,221.337 91.1779,221.67 92.5,221.5C 92.5,223.833 92.5,226.167 92.5,228.5C 94.1238,228.36 95.2904,229.027 96,230.5C 96.7114,233.734 97.5447,236.901 98.5,240C 98.1667,240.333 97.8333,240.667 97.5,241C 99.6182,243.142 102.118,244.642 105,245.5C 107.564,252.187 111.064,258.187 115.5,263.5C 116.136,265.795 117.469,267.461 119.5,268.5C 120.338,268.842 120.672,269.508 120.5,270.5C 119.916,273.285 120.916,274.952 123.5,275.5C 124.62,279.1 125.787,282.767 127,286.5C 127.422,288.426 128.589,289.426 130.5,289.5C 131.627,292.857 131.627,296.191 130.5,299.5C 129.5,299.5 128.5,299.5 127.5,299.5C 127.153,304.421 126.153,304.254 124.5,299C 123.552,298.517 122.552,298.351 121.5,298.5C 121.658,295.478 120.325,293.478 117.5,292.5C 116.662,292.158 116.328,291.492 116.5,290.5C 116.25,288.326 115.25,286.659 113.5,285.5C 112.662,285.158 112.328,284.492 112.5,283.5C 112.25,281.326 111.25,279.659 109.5,278.5C 108.326,277.486 107.66,276.153 107.5,274.5C 107.426,271.341 106.093,269.008 103.5,267.5C 103.477,262.757 101.477,259.423 97.5,257.5C 96.6618,257.158 96.3284,256.492 96.5,255.5C 96.6458,252.229 95.3125,249.895 92.5,248.5C 91.6618,248.158 91.3284,247.492 91.5,246.5C 90.7814,244.236 90.448,241.903 90.5,239.5C 89.5,239.5 88.5,239.5 87.5,239.5C 85.5123,234.855 83.5123,230.188 81.5,225.5C 80.1482,224.476 78.8149,223.476 77.5,222.5C 77.1287,218.665 75.462,215.665 72.5,213.5C 72.4259,210.341 71.0926,208.008 68.5,206.5C 68.4259,203.341 67.0926,201.008 64.5,199.5C 64.573,197.973 63.9063,196.973 62.5,196.5C 61.3995,195.395 60.7329,194.062 60.5,192.5C 60.2503,190.326 59.2503,188.659 57.5,187.5C 56.6618,187.158 56.3284,186.492 56.5,185.5C 56.5,185.167 56.5,184.833 56.5,184.5 Z"/></g>
<g><path style="opacity:0.145" fill="#d0d0f2" d="M 99.5,233.5 C 100.906,233.973 101.573,234.973 101.5,236.5C 100.094,236.027 99.427,235.027 99.5,233.5 Z"/></g>
<g><path style="opacity:0.945" fill="#7b7b7b" d="M 162.5,233.5 C 162.88,235.698 162.213,237.365 160.5,238.5C 160.402,236.447 161.069,234.78 162.5,233.5 Z"/></g>
<g><path style="opacity:0.965" fill="#767882" d="M 386.5,233.5 C 386.408,235.848 385.408,237.514 383.5,238.5C 383.75,236.326 384.75,234.659 386.5,233.5 Z"/></g>
<g><path style="opacity:1" fill="#40389d" d="M 92.5,221.5 C 93.3382,221.842 93.6716,222.508 93.5,223.5C 93.427,225.027 94.0937,226.027 95.5,226.5C 97.588,228.336 98.9213,230.669 99.5,233.5C 99.427,235.027 100.094,236.027 101.5,236.5C 102.674,237.514 103.34,238.847 103.5,240.5C 103.427,242.027 104.094,243.027 105.5,243.5C 106.674,244.514 107.34,245.847 107.5,247.5C 107.427,249.027 108.094,250.027 109.5,250.5C 109.5,250.833 109.5,251.167 109.5,251.5C 109.427,253.027 110.094,254.027 111.5,254.5C 112.338,254.842 112.672,255.508 112.5,256.5C 112.427,258.027 113.094,259.027 114.5,259.5C 115.338,259.842 115.672,260.508 115.5,261.5C 115.5,262.167 115.5,262.833 115.5,263.5C 111.064,258.187 107.564,252.187 105,245.5C 102.118,244.642 99.6182,243.142 97.5,241C 97.8333,240.667 98.1667,240.333 98.5,240C 97.5447,236.901 96.7114,233.734 96,230.5C 95.2904,229.027 94.1238,228.36 92.5,228.5C 92.5,226.167 92.5,223.833 92.5,221.5 Z"/></g>
<g><path style="opacity:1" fill="#131527" d="M 406.5,225.5 C 406.672,226.492 406.338,227.158 405.5,227.5C 404.504,227.586 403.671,227.252 403,226.5C 402.505,228.473 402.338,230.473 402.5,232.5C 400.241,233.344 399.241,235.011 399.5,237.5C 399.008,239.819 398.008,241.819 396.5,243.5C 395.094,243.973 394.427,244.973 394.5,246.5C 394.34,248.153 393.674,249.486 392.5,250.5C 391.094,250.973 390.427,251.973 390.5,253.5C 390.672,254.492 390.338,255.158 389.5,255.5C 388.292,256.234 386.959,256.567 385.5,256.5C 385.5,258.5 385.5,260.5 385.5,262.5C 385.672,263.492 385.338,264.158 384.5,264.5C 383.094,264.973 382.427,265.973 382.5,267.5C 382.34,269.153 381.674,270.486 380.5,271.5C 379.094,271.973 378.427,272.973 378.5,274.5C 378.34,276.153 377.674,277.486 376.5,278.5C 375.094,278.973 374.427,279.973 374.5,281.5C 372.241,282.344 371.241,284.011 371.5,286.5C 371.025,288.784 370.025,290.784 368.5,292.5C 368.167,292.5 367.833,292.5 367.5,292.5C 368.737,285.192 371.737,278.692 376.5,273C 376.167,272.667 375.833,272.333 375.5,272C 378.907,268.429 381.24,264.929 382.5,261.5C 380.358,248.945 377.691,248.611 374.5,260.5C 373.311,261.429 371.978,261.762 370.5,261.5C 370.66,259.847 371.326,258.514 372.5,257.5C 373.906,257.027 374.573,256.027 374.5,254.5C 374.66,252.847 375.326,251.514 376.5,250.5C 377.906,250.027 378.573,249.027 378.5,247.5C 379.906,247.027 380.573,246.027 380.5,244.5C 380.5,244.167 380.5,243.833 380.5,243.5C 381.906,243.027 382.573,242.027 382.5,240.5C 382.328,239.508 382.662,238.842 383.5,238.5C 385.408,237.514 386.408,235.848 386.5,233.5C 388.931,231.954 390.264,229.621 390.5,226.5C 391.906,226.027 392.573,225.027 392.5,223.5C 393.708,222.766 395.041,222.433 396.5,222.5C 396.249,219.232 396.915,215.898 398.5,212.5C 398.328,211.508 398.662,210.842 399.5,210.5C 400.906,210.027 401.573,209.027 401.5,207.5C 401.328,206.508 401.662,205.842 402.5,205.5C 403.492,205.672 404.158,205.338 404.5,204.5C 405.815,203.524 407.148,202.524 408.5,201.5C 409.787,204.709 409.787,207.875 408.5,211C 409.167,211.333 409.833,211.667 410.5,212C 409.292,215.382 407.292,218.715 404.5,222C 405.429,223.077 406.096,224.244 406.5,225.5 Z"/></g>
<g><path style="opacity:1" fill="#867bc1" d="M 87.5,239.5 C 88.5,239.5 89.5,239.5 90.5,239.5C 90.448,241.903 90.7814,244.236 91.5,246.5C 89.412,244.664 88.0787,242.331 87.5,239.5 Z"/></g>
<g><path style="opacity:0.145" fill="#cccff2" d="M 103.5,240.5 C 104.906,240.973 105.573,241.973 105.5,243.5C 104.094,243.027 103.427,242.027 103.5,240.5 Z"/></g>
<g><path style="opacity:0.2" fill="#c3c3ca" d="M 382.5,240.5 C 382.573,242.027 381.906,243.027 380.5,243.5C 380.427,241.973 381.094,240.973 382.5,240.5 Z"/></g>
<g><path style="opacity:0.153" fill="#c5c5cb" d="M 396.5,243.5 C 396.573,245.027 395.906,246.027 394.5,246.5C 394.427,244.973 395.094,243.973 396.5,243.5 Z"/></g>
<g><path style="opacity:0.471" fill="#8f8f9a" d="M 380.5,244.5 C 380.573,246.027 379.906,247.027 378.5,247.5C 378.427,245.973 379.094,244.973 380.5,244.5 Z"/></g>
<g><path style="opacity:1" fill="#948bc9" d="M 92.5,248.5 C 95.3125,249.895 96.6458,252.229 96.5,255.5C 94.412,253.664 93.0787,251.331 92.5,248.5 Z"/></g>
<g><path style="opacity:0.161" fill="#d0d2ee" d="M 107.5,247.5 C 108.906,247.973 109.573,248.973 109.5,250.5C 108.094,250.027 107.427,249.027 107.5,247.5 Z"/></g>
<g><path style="opacity:0.208" fill="#c0c0ca" d="M 378.5,247.5 C 378.573,249.027 377.906,250.027 376.5,250.5C 376.427,248.973 377.094,247.973 378.5,247.5 Z"/></g>
<g><path style="opacity:0.141" fill="#c6c6d0" d="M 392.5,250.5 C 392.573,252.027 391.906,253.027 390.5,253.5C 390.427,251.973 391.094,250.973 392.5,250.5 Z"/></g>
<g><path style="opacity:0.404" fill="#a3a2d5" d="M 109.5,251.5 C 110.906,251.973 111.573,252.973 111.5,254.5C 110.094,254.027 109.427,253.027 109.5,251.5 Z"/></g>
<g><path style="opacity:0.129" fill="#d0d0d0" d="M 333.5,257.5 C 332.883,257.389 332.383,257.056 332,256.5C 331.666,258.847 331.833,261.181 332.5,263.5C 330.777,261.22 330.111,258.553 330.5,255.5C 332.179,255.285 333.179,255.952 333.5,257.5 Z"/></g>
<g><path style="opacity:0.192" fill="#c1c1cc" d="M 374.5,254.5 C 374.573,256.027 373.906,257.027 372.5,257.5C 372.427,255.973 373.094,254.973 374.5,254.5 Z"/></g>
<g><path style="opacity:1" fill="#6a6a76" d="M 389.5,255.5 C 388.921,258.331 387.588,260.664 385.5,262.5C 385.5,260.5 385.5,258.5 385.5,256.5C 386.959,256.567 388.292,256.234 389.5,255.5 Z"/></g>
<g><path style="opacity:1" fill="#7b73b8" d="M 97.5,257.5 C 101.477,259.423 103.477,262.757 103.5,267.5C 101,264.506 99.0002,261.173 97.5,257.5 Z"/></g>
<g><path style="opacity:0.239" fill="#c1c0e8" d="M 112.5,256.5 C 113.906,256.973 114.573,257.973 114.5,259.5C 113.094,259.027 112.427,258.027 112.5,256.5 Z"/></g>
<g><path style="opacity:0.286" fill="#acacac" d="M 151.5,257.5 C 151.573,259.027 150.906,260.027 149.5,260.5C 149.427,258.973 150.094,257.973 151.5,257.5 Z"/></g>
<g><path style="opacity:0.408" fill="#a4a4a4" d="M 334.5,259.5 C 335.906,259.973 336.573,260.973 336.5,262.5C 335.094,262.027 334.427,261.027 334.5,259.5 Z"/></g>
<g><path style="opacity:0.157" fill="#d6d6d6" d="M 149.5,260.5 C 149.771,262.38 149.104,263.713 147.5,264.5C 147.66,262.847 148.326,261.514 149.5,260.5 Z"/></g>
<g><path style="opacity:0.263" fill="#b6b6b6" d="M 336.5,262.5 C 337.906,262.973 338.573,263.973 338.5,265.5C 337.094,265.027 336.427,264.027 336.5,262.5 Z"/></g>
<g><path style="opacity:0.922" fill="#837db9" d="M 115.5,261.5 C 117.588,263.336 118.921,265.669 119.5,268.5C 117.469,267.461 116.136,265.795 115.5,263.5C 115.5,262.833 115.5,262.167 115.5,261.5 Z"/></g>
<g><path style="opacity:0.969" fill="#6c6b7d" d="M 370.5,261.5 C 370.264,264.621 368.931,266.954 366.5,268.5C 367.079,265.669 368.412,263.336 370.5,261.5 Z"/></g>
<g><path style="opacity:0.153" fill="#c3c3ce" d="M 384.5,264.5 C 384.573,266.027 383.906,267.027 382.5,267.5C 382.427,265.973 383.094,264.973 384.5,264.5 Z"/></g>
<g><path style="opacity:1" fill="#8d89c1" d="M 103.5,267.5 C 106.093,269.008 107.426,271.341 107.5,274.5C 105.412,272.664 104.079,270.331 103.5,267.5 Z"/></g>
<g><path style="opacity:0.863" fill="#7a7a7a" d="M 335.5,269.5 C 337.048,269.821 337.715,270.821 337.5,272.5C 336.599,271.71 335.932,270.71 335.5,269.5 Z"/></g>
<g><path style="opacity:0.365" fill="#a3a3a3" d="M 339.5,267.5 C 340.906,267.973 341.573,268.973 341.5,270.5C 340.094,270.027 339.427,269.027 339.5,267.5 Z"/></g>
<g><path style="opacity:0.961" fill="#7b7b8a" d="M 366.5,268.5 C 366.408,270.848 365.408,272.514 363.5,273.5C 363.75,271.326 364.75,269.659 366.5,268.5 Z"/></g>
<g><path style="opacity:0.153" fill="#c8c8d2" d="M 380.5,271.5 C 380.573,273.027 379.906,274.027 378.5,274.5C 378.427,272.973 379.094,271.973 380.5,271.5 Z"/></g>
<g><path style="opacity:0.949" fill="#7871ab" d="M 120.5,270.5 C 122.25,271.659 123.25,273.326 123.5,275.5C 120.916,274.952 119.916,273.285 120.5,270.5 Z"/></g>
<g><path style="opacity:0.51" fill="#9f9f9f" d="M 342.5,272.5 C 344.262,273.262 345.262,274.596 345.5,276.5C 343.738,275.738 342.738,274.404 342.5,272.5 Z"/></g>
<g><path style="opacity:1" fill="#0e0f2c" d="M 367.5,292.5 C 366.89,293.391 366.557,294.391 366.5,295.5C 366.34,297.153 365.674,298.486 364.5,299.5C 363.833,299.833 363.167,300.167 362.5,300.5C 356.82,298.149 354.486,293.815 355.5,287.5C 356.728,286.694 357.728,285.694 358.5,284.5C 360.874,282.066 362.208,279.066 362.5,275.5C 362.328,274.508 362.662,273.842 363.5,273.5C 365.408,272.514 366.408,270.848 366.5,268.5C 368.931,266.954 370.264,264.621 370.5,261.5C 371.978,261.762 373.311,261.429 374.5,260.5C 377.691,248.611 380.358,248.945 382.5,261.5C 381.24,264.929 378.907,268.429 375.5,272C 375.833,272.333 376.167,272.667 376.5,273C 371.737,278.692 368.737,285.192 367.5,292.5 Z"/></g>
<g><path style="opacity:0.686" fill="#8f8f8f" d="M 338.5,274.5 C 339.291,276.309 339.291,278.309 338.5,280.5C 337.733,279.828 337.066,278.995 336.5,278C 337.823,277.184 338.489,276.017 338.5,274.5 Z"/></g>
<g><path style="opacity:0.161" fill="#bbbbbb" d="M 151.5,275.5 C 151.771,277.38 151.104,278.713 149.5,279.5C 149.66,277.847 150.326,276.514 151.5,275.5 Z"/></g>
<g><path style="opacity:0.173" fill="#ccc9eb" d="M 109.5,278.5 C 111.25,279.659 112.25,281.326 112.5,283.5C 110.75,282.341 109.75,280.674 109.5,278.5 Z"/></g>
<g><path style="opacity:0.145" fill="#c9c8d0" d="M 376.5,278.5 C 376.573,280.027 375.906,281.027 374.5,281.5C 374.427,279.973 375.094,278.973 376.5,278.5 Z"/></g>
<g><path style="opacity:0.494" fill="#8e8e8e" d="M 347.5,280.5 C 348.906,280.973 349.573,281.973 349.5,283.5C 348.094,283.027 347.427,282.027 347.5,280.5 Z"/></g>
<g><path style="opacity:1" fill="#464659" d="M 362.5,275.5 C 362.208,279.066 360.874,282.066 358.5,284.5C 358.5,283.833 358.5,283.167 358.5,282.5C 359.079,279.669 360.412,277.336 362.5,275.5 Z"/></g>
<g><path style="opacity:0.949" fill="#706f7e" d="M 374.5,281.5 C 374.25,283.674 373.25,285.341 371.5,286.5C 371.241,284.011 372.241,282.344 374.5,281.5 Z"/></g>
<g><path style="opacity:0.184" fill="#c8c7eb" d="M 127.5,282.5 C 128.906,282.973 129.573,283.973 129.5,285.5C 128.094,285.027 127.427,284.027 127.5,282.5 Z"/></g>
<g><path style="opacity:0.235" fill="#b6b7c5" d="M 358.5,282.5 C 358.5,283.167 358.5,283.833 358.5,284.5C 357.728,285.694 356.728,286.694 355.5,287.5C 355.75,285.326 356.75,283.659 358.5,282.5 Z"/></g>
<g><path style="opacity:1" fill="#5a529c" d="M 123.5,275.5 C 125.588,277.336 126.921,279.669 127.5,282.5C 127.427,284.027 128.094,285.027 129.5,285.5C 130.674,286.514 131.34,287.847 131.5,289.5C 131.167,289.5 130.833,289.5 130.5,289.5C 128.589,289.426 127.422,288.426 127,286.5C 125.787,282.767 124.62,279.1 123.5,275.5 Z"/></g>
<g><path style="opacity:0.369" fill="#a6a6a6" d="M 349.5,283.5 C 350.906,283.973 351.573,284.973 351.5,286.5C 350.094,286.027 349.427,285.027 349.5,283.5 Z"/></g>
<g><path style="opacity:0.208" fill="#b6b6b6" d="M 147.5,283.5 C 147.771,285.38 147.104,286.713 145.5,287.5C 145.66,285.847 146.326,284.514 147.5,283.5 Z"/></g>
<g><path style="opacity:0.157" fill="#cdcceb" d="M 113.5,285.5 C 115.25,286.659 116.25,288.326 116.5,290.5C 114.75,289.341 113.75,287.674 113.5,285.5 Z"/></g>
<g><path style="opacity:0.902" fill="#838082" d="M 137.5,285.5 C 137.843,287.483 137.176,288.817 135.5,289.5C 135.66,287.847 136.326,286.514 137.5,285.5 Z"/></g>
<g><path style="opacity:0.302" fill="#b1b1b4" d="M 351.5,286.5 C 352.906,286.973 353.573,287.973 353.5,289.5C 352.094,289.027 351.427,288.027 351.5,286.5 Z"/></g>
<g><path style="opacity:0.09" fill="#d4d4d4" d="M 342.5,287.5 C 343.906,287.973 344.573,288.973 344.5,290.5C 344.167,290.5 343.833,290.5 343.5,290.5C 342.89,289.609 342.557,288.609 342.5,287.5 Z"/></g>
<g><path style="opacity:0.196" fill="#e3e3e6" d="M 198.5,289.5 C 201.119,290.403 201.786,292.069 200.5,294.5C 198.783,293.332 198.116,291.665 198.5,289.5 Z"/></g>
<g><path style="opacity:0.006" fill="#f9f9f9" d="M 343.5,290.5 C 343.5,291.833 344.167,292.5 345.5,292.5C 346.167,292.5 346.5,292.833 346.5,293.5C 345.167,293.5 343.833,293.5 342.5,293.5C 342.263,292.209 342.596,291.209 343.5,290.5 Z"/></g>
<g><path style="opacity:0.824" fill="#9490be" d="M 131.5,289.5 C 133.379,289.393 133.712,289.893 132.5,291C 133.044,291.717 133.711,292.217 134.5,292.5C 134.5,292.833 134.5,293.167 134.5,293.5C 132.088,293.306 131.088,291.973 131.5,289.5 Z"/></g>
<g><path style="opacity:0.996" fill="#8d83c3" d="M 117.5,292.5 C 120.325,293.478 121.658,295.478 121.5,298.5C 121.5,298.833 121.5,299.167 121.5,299.5C 119.917,297.337 118.584,295.004 117.5,292.5 Z"/></g>
<g><path style="opacity:0.477" fill="#aeaeae" d="M 346.5,293.5 C 347.043,293.56 347.376,293.893 347.5,294.5C 315.507,295.5 283.507,295.833 251.5,295.5C 283.167,294.833 314.833,294.167 346.5,293.5 Z"/></g>
<g><path style="opacity:0.141" fill="#c9c8d4" d="M 367.5,292.5 C 367.833,292.5 368.167,292.5 368.5,292.5C 368.573,294.027 367.906,295.027 366.5,295.5C 366.557,294.391 366.89,293.391 367.5,292.5 Z"/></g>
<g><path style="opacity:0.107" fill="#cecece" d="M 144.5,290.5 C 144.249,292.17 143.582,293.67 142.5,295C 167.831,295.5 193.164,295.667 218.5,295.5C 193.005,296.498 167.339,296.831 141.5,296.5C 141.461,293.911 142.461,291.911 144.5,290.5 Z"/></g>
<g><path style="opacity:0.114" fill="#c9c8d5" d="M 364.5,299.5 C 364.573,301.027 363.906,302.027 362.5,302.5C 362.5,301.833 362.5,301.167 362.5,300.5C 363.167,300.167 363.833,299.833 364.5,299.5 Z"/></g>
<g><path style="opacity:0.094" fill="#d8d1f3" d="M 122.5,301.5 C 123.906,301.973 124.573,302.973 124.5,304.5C 123.094,304.027 122.427,303.027 122.5,301.5 Z"/></g>
<g><path style="opacity:0.069" fill="#f0f0f1" d="M 325.5,304.5 C 332.167,304.5 338.833,304.5 345.5,304.5C 345.672,305.492 345.338,306.158 344.5,306.5C 338.167,305.833 331.833,305.167 325.5,304.5 Z"/></g>
<g><path style="opacity:1" fill="#696673" d="M 362.5,302.5 C 362.002,305.326 360.669,307.66 358.5,309.5C 358.634,307.708 358.301,306.042 357.5,304.5C 358.496,304.414 359.329,304.748 360,305.5C 360.852,304.429 361.685,303.429 362.5,302.5 Z"/></g>
<g><path style="opacity:0.267" fill="#bbbcde" d="M 140.5,305.5 C 141.906,305.973 142.573,306.973 142.5,308.5C 141.094,308.027 140.427,307.027 140.5,305.5 Z"/></g>
<g><path style="opacity:0.141" fill="#cbc9ea" d="M 125.5,306.5 C 127.25,307.659 128.25,309.326 128.5,311.5C 126.75,310.341 125.75,308.674 125.5,306.5 Z"/></g>
<g><path style="opacity:0.922" fill="#727283" d="M 358.5,309.5 C 358.25,311.674 357.25,313.341 355.5,314.5C 355.241,312.011 356.241,310.344 358.5,309.5 Z"/></g>
<g><path style="opacity:0.31" fill="#b9b7dc" d="M 144.5,312.5 C 145.906,312.973 146.573,313.973 146.5,315.5C 145.094,315.027 144.427,314.027 144.5,312.5 Z"/></g>
<g><path style="opacity:1" fill="#191837" d="M 345.5,304.5 C 346.281,306.628 347.281,306.795 348.5,305C 351.482,304.502 354.482,304.335 357.5,304.5C 358.301,306.042 358.634,307.708 358.5,309.5C 356.241,310.344 355.241,312.011 355.5,314.5C 353.087,315.68 352.087,317.68 352.5,320.5C 352.068,321.71 351.401,322.71 350.5,323.5C 349.609,324.11 348.609,324.443 347.5,324.5C 346.748,322.9 345.748,321.4 344.5,320C 345.071,318.795 345.738,317.628 346.5,316.5C 347.48,317.981 348.647,319.315 350,320.5C 350.333,317.167 350.667,313.833 351,310.5C 351.71,311.973 352.876,312.64 354.5,312.5C 354.5,310.833 354.5,309.167 354.5,307.5C 351.5,307.5 348.5,307.5 345.5,307.5C 345.493,311.847 343.66,315.18 340,317.5C 340.236,322.398 338.069,325.398 333.5,326.5C 336.663,319.504 340.329,312.838 344.5,306.5C 345.338,306.158 345.672,305.492 345.5,304.5 Z"/></g>
<g><path style="opacity:0.996" fill="#6e6f80" d="M 355.5,314.5 C 355.008,316.819 354.008,318.819 352.5,320.5C 352.087,317.68 353.087,315.68 355.5,314.5 Z"/></g>
<g><path style="opacity:0.247" fill="#c8c6ea" d="M 146.5,315.5 C 147.906,315.973 148.573,316.973 148.5,318.5C 147.094,318.027 146.427,317.027 146.5,315.5 Z"/></g>
<g><path style="opacity:1" fill="#6d66a8" d="M 130.5,315.5 C 132.335,316.122 133.502,317.456 134,319.5C 134.333,318.833 134.667,318.167 135,317.5C 137.089,321.668 138.589,326.002 139.5,330.5C 136.263,325.701 133.263,320.701 130.5,315.5 Z"/></g>
<g><path style="opacity:0.471" fill="#d3d0d8" d="M 139.5,303.5 C 174.004,303.168 208.337,303.502 242.5,304.5C 225.163,304.333 207.83,304.5 190.5,305C 188.413,308.508 186.08,311.842 183.5,315C 178.959,317.701 174.292,320.201 169.5,322.5C 165.67,321.456 161.67,319.956 157.5,318C 156.5,316.333 155.5,314.667 154.5,313C 155,312.5 155.5,312 156,311.5C 156.465,312.931 157.299,314.097 158.5,315C 162.225,316.014 165.892,317.181 169.5,318.5C 177.459,316.345 183.459,311.845 187.5,305C 171.661,304.172 155.995,304.339 140.5,305.5C 139.662,305.158 139.328,304.492 139.5,303.5 Z"/></g>
<g><path style="opacity:0.204" fill="#d6cff7" d="M 148.5,318.5 C 149.906,318.973 150.573,319.973 150.5,321.5C 149.094,321.027 148.427,320.027 148.5,318.5 Z"/></g>
<g><path style="opacity:0.933" fill="#717085" d="M 350.5,323.5 C 350.25,325.674 349.25,327.341 347.5,328.5C 347.5,327.167 347.5,325.833 347.5,324.5C 348.609,324.443 349.609,324.11 350.5,323.5 Z"/></g>
<g><path style="opacity:0.514" fill="#e5dfec" d="M 191.5,326.5 C 191.918,325.778 192.584,325.278 193.5,325C 190.864,324.066 188.197,323.232 185.5,322.5C 181.203,324.649 176.87,326.815 172.5,329C 166.244,329.385 160.244,328.218 154.5,325.5C 153.584,325.543 152.917,325.876 152.5,326.5C 151.069,325.22 150.402,323.553 150.5,321.5C 156.46,323.162 162.46,324.828 168.5,326.5C 174.282,324.109 179.949,321.443 185.5,318.5C 189.201,320.903 193.201,321.737 197.5,321C 202.474,317.679 207.807,315.179 213.5,313.5C 213.719,314.675 213.386,315.675 212.5,316.5C 206.136,321.182 199.136,324.516 191.5,326.5 Z"/></g>
<g><path style="opacity:0.006" fill="#fefffe" d="M 191.5,326.5 C 191.611,327.117 191.944,327.617 192.5,328C 191.584,328.278 190.918,328.778 190.5,329.5C 189.115,328.053 189.448,327.053 191.5,326.5 Z"/></g>
<g><path style="opacity:0.306" fill="#bab6dc" d="M 152.5,326.5 C 153.906,326.973 154.573,327.973 154.5,329.5C 153.094,329.027 152.427,328.027 152.5,326.5 Z"/></g>
<g><path style="opacity:0.992" fill="#51506a" d="M 333.5,326.5 C 333.924,330.002 332.59,332.335 329.5,333.5C 330.079,330.669 331.412,328.336 333.5,326.5 Z"/></g>
<g><path style="opacity:0.996" fill="#605f75" d="M 346.5,330.5 C 346.25,332.674 345.25,334.341 343.5,335.5C 343.5,333.833 343.5,332.167 343.5,330.5C 344.5,330.5 345.5,330.5 346.5,330.5 Z"/></g>
<g><path style="opacity:1" fill="#807cb1" d="M 139.5,330.5 C 142.312,331.895 143.646,334.229 143.5,337.5C 141.412,335.664 140.079,333.331 139.5,330.5 Z"/></g>
<g><path style="opacity:0.694" fill="#ebe2ee" d="M 190.5,329.5 C 193.049,329.387 195.382,330.054 197.5,331.5C 201.539,328.481 205.872,325.981 210.5,324C 213.096,322.864 215.763,322.031 218.5,321.5C 218.719,322.675 218.386,323.675 217.5,324.5C 211.67,327.628 206.503,330.961 202,334.5C 195.686,334.473 189.186,333.973 182.5,333C 180.677,328.154 182.344,326.488 187.5,328C 188.047,328.925 188.713,329.758 189.5,330.5C 190.107,330.376 190.44,330.043 190.5,329.5 Z"/></g>
<g><path style="opacity:0.886" fill="#c58ecc" d="M 183.5,328.5 C 186.166,328.066 187.333,329.066 187,331.5C 183.403,333.066 182.237,332.066 183.5,328.5 Z"/></g>
<g><path style="opacity:0.678" fill="#dec4e5" d="M 220.5,327.5 C 222.101,328.519 223.101,330.019 223.5,332C 220.914,335.431 218.914,334.931 217.5,330.5C 218.34,329.265 219.34,328.265 220.5,327.5 Z"/></g>
<g><path style="opacity:0.325" fill="#bab5df" d="M 156.5,333.5 C 157.906,333.973 158.573,334.973 158.5,336.5C 157.094,336.027 156.427,335.027 156.5,333.5 Z"/></g>
<g><path style="opacity:0.745" fill="#ddbce6" d="M 207.5,334.5 C 212.159,334.015 213.492,335.848 211.5,340C 207.132,340.439 205.799,338.606 207.5,334.5 Z"/></g>
<g><path style="opacity:1" fill="#494861" d="M 343.5,335.5 C 342.59,338.992 340.924,341.992 338.5,344.5C 337.414,339.806 339.081,336.806 343.5,335.5 Z"/></g>
<g><path style="opacity:1" fill="#474561" d="M 329.5,333.5 C 328.948,337.035 327.782,340.368 326,343.5C 325.667,343.167 325.333,342.833 325,342.5C 324.78,344.973 323.614,346.64 321.5,347.5C 323.664,342.5 326.331,337.833 329.5,333.5 Z"/></g>
<g><path style="opacity:1" fill="#7c76ae" d="M 143.5,337.5 C 148.524,341.564 151.524,346.898 152.5,353.5C 148.997,348.498 145.997,343.165 143.5,337.5 Z"/></g>
<g><path style="opacity:1" fill="#2a268f" d="M 130.5,289.5 C 130.833,289.5 131.167,289.5 131.5,289.5C 131.088,291.973 132.088,293.306 134.5,293.5C 132.924,296.655 131.924,299.988 131.5,303.5C 134.167,303.5 136.833,303.5 139.5,303.5C 139.328,304.492 139.662,305.158 140.5,305.5C 140.427,307.027 141.094,308.027 142.5,308.5C 143.674,309.514 144.34,310.847 144.5,312.5C 144.427,314.027 145.094,315.027 146.5,315.5C 146.427,317.027 147.094,318.027 148.5,318.5C 148.427,320.027 149.094,321.027 150.5,321.5C 150.402,323.553 151.069,325.22 152.5,326.5C 152.427,328.027 153.094,329.027 154.5,329.5C 154.678,332.216 155.178,334.883 156,337.5C 158.114,338.953 159.448,340.953 160,343.5C 160.928,349.935 162.094,356.268 163.5,362.5C 160.964,361.963 158.964,360.63 157.5,358.5C 156.455,357.122 155.122,356.122 153.5,355.5C 152.662,355.158 152.328,354.492 152.5,353.5C 151.524,346.898 148.524,341.564 143.5,337.5C 143.646,334.229 142.312,331.895 139.5,330.5C 138.589,326.002 137.089,321.668 135,317.5C 134.667,318.167 134.333,318.833 134,319.5C 133.502,317.456 132.335,316.122 130.5,315.5C 129.4,314.395 128.733,313.062 128.5,311.5C 128.25,309.326 127.25,307.659 125.5,306.5C 124.662,306.158 124.328,305.492 124.5,304.5C 124.573,302.973 123.906,301.973 122.5,301.5C 121.662,301.158 121.328,300.492 121.5,299.5C 121.5,299.167 121.5,298.833 121.5,298.5C 122.552,298.351 123.552,298.517 124.5,299C 126.153,304.254 127.153,304.421 127.5,299.5C 128.5,299.5 129.5,299.5 130.5,299.5C 131.627,296.191 131.627,292.857 130.5,289.5 Z"/></g>
<g><path style="opacity:0.953" fill="#807f93" d="M 338.5,344.5 C 337.921,347.331 336.588,349.664 334.5,351.5C 334.574,348.341 335.907,346.008 338.5,344.5 Z"/></g>
<g><path style="opacity:0.196" fill="#eddae9" d="M 224.5,355.5 C 218.429,353.073 216.429,354.906 218.5,361C 220.134,361.494 221.801,361.66 223.5,361.5C 218.521,361.755 213.854,363.255 209.5,366C 207.5,366.667 205.5,366.667 203.5,366C 201.081,361.828 198.415,357.828 195.5,354C 190.847,352.677 186.181,351.344 181.5,350C 179.702,347.528 177.368,345.861 174.5,345C 169.674,339.096 171.007,335.763 178.5,335C 179.701,335.903 180.535,337.069 181,338.5C 180.952,340.926 181.119,343.259 181.5,345.5C 186.949,348.151 192.615,350.318 198.5,352C 200.266,356.73 203.099,360.563 207,363.5C 211.952,362.211 215.285,359.211 217,354.5C 220.11,351.61 222.61,351.944 224.5,355.5 Z"/></g>
<g><path style="opacity:1" fill="#e89bc1" d="M 174.5,336.5 C 175.833,336.5 177.167,336.5 178.5,336.5C 178.5,338.833 178.5,341.167 178.5,343.5C 173.59,343.424 172.257,341.09 174.5,336.5 Z"/></g>
<g><path style="opacity:0.408" fill="#a2a4cf" d="M 165.5,349.5 C 166.906,349.973 167.573,350.973 167.5,352.5C 166.094,352.027 165.427,351.027 165.5,349.5 Z"/></g>
<g><path style="opacity:0.969" fill="#6b6882" d="M 321.5,347.5 C 321.408,349.848 320.408,351.514 318.5,352.5C 318.75,350.326 319.75,348.659 321.5,347.5 Z"/></g>
<g><path style="opacity:1" fill="#161441" d="M 347.5,324.5 C 347.5,325.833 347.5,327.167 347.5,328.5C 347.672,329.492 347.338,330.158 346.5,330.5C 345.5,330.5 344.5,330.5 343.5,330.5C 343.5,332.167 343.5,333.833 343.5,335.5C 339.081,336.806 337.414,339.806 338.5,344.5C 335.907,346.008 334.574,348.341 334.5,351.5C 334.672,352.492 334.338,353.158 333.5,353.5C 331.241,354.344 330.241,356.011 330.5,358.5C 330.25,360.674 329.25,362.341 327.5,363.5C 324.812,365.797 323.146,368.797 322.5,372.5C 322.672,373.492 322.338,374.158 321.5,374.5C 319.75,375.659 318.75,377.326 318.5,379.5C 318.34,381.153 317.674,382.486 316.5,383.5C 315.094,383.973 314.427,384.973 314.5,386.5C 314.34,388.153 313.674,389.486 312.5,390.5C 311.094,390.973 310.427,391.973 310.5,393.5C 310.34,395.153 309.674,396.486 308.5,397.5C 307.833,397.833 307.167,398.167 306.5,398.5C 306.215,396.712 306.548,395.045 307.5,393.5C 308.799,392.91 309.632,391.91 310,390.5C 310.091,386.747 310.258,383.08 310.5,379.5C 311.421,381.756 313.088,382.756 315.5,382.5C 314.174,377.66 313.174,372.66 312.5,367.5C 311.682,369.108 311.015,370.775 310.5,372.5C 310.043,373.298 309.376,373.631 308.5,373.5C 309.167,371.167 309.833,368.833 310.5,366.5C 312.931,364.954 314.264,362.621 314.5,359.5C 316.931,357.954 318.264,355.621 318.5,352.5C 320.408,351.514 321.408,349.848 321.5,347.5C 323.614,346.64 324.78,344.973 325,342.5C 325.333,342.833 325.667,343.167 326,343.5C 327.782,340.368 328.948,337.035 329.5,333.5C 332.59,332.335 333.924,330.002 333.5,326.5C 338.069,325.398 340.236,322.398 340,317.5C 343.66,315.18 345.493,311.847 345.5,307.5C 348.5,307.5 351.5,307.5 354.5,307.5C 354.5,309.167 354.5,310.833 354.5,312.5C 352.876,312.64 351.71,311.973 351,310.5C 350.667,313.833 350.333,317.167 350,320.5C 348.647,319.315 347.48,317.981 346.5,316.5C 345.738,317.628 345.071,318.795 344.5,320C 345.748,321.4 346.748,322.9 347.5,324.5 Z"/></g>
<g><path style="opacity:0.886" fill="#838297" d="M 333.5,353.5 C 333.25,355.674 332.25,357.341 330.5,358.5C 330.241,356.011 331.241,354.344 333.5,353.5 Z"/></g>
<g><path style="opacity:0.949" fill="#726f89" d="M 318.5,352.5 C 318.264,355.621 316.931,357.954 314.5,359.5C 315.079,356.669 316.412,354.336 318.5,352.5 Z"/></g>
<g><path style="opacity:1" fill="#625e98" d="M 169.5,356.5 C 171.25,357.659 172.25,359.326 172.5,361.5C 169.916,360.952 168.916,359.285 169.5,356.5 Z"/></g>
<g><path style="opacity:0.898" fill="#e7adc4" d="M 224.5,355.5 C 225.139,356.097 225.472,356.93 225.5,358C 225.613,359.699 224.947,360.866 223.5,361.5C 221.801,361.66 220.134,361.494 218.5,361C 216.429,354.906 218.429,353.073 224.5,355.5 Z"/></g>
<g><path style="opacity:1" fill="#8680b1" d="M 153.5,355.5 C 155.122,356.122 156.455,357.122 157.5,358.5C 159.221,361.995 160.555,365.661 161.5,369.5C 158.343,365.194 155.676,360.528 153.5,355.5 Z"/></g>
<g><path style="opacity:0.933" fill="#716e8a" d="M 314.5,359.5 C 314.264,362.621 312.931,364.954 310.5,366.5C 311.079,363.669 312.412,361.336 314.5,359.5 Z"/></g>
<g><path style="opacity:0.973" fill="#797890" d="M 327.5,363.5 C 326.59,366.992 324.924,369.992 322.5,372.5C 323.146,368.797 324.812,365.797 327.5,363.5 Z"/></g>
<g><path style="opacity:1" fill="#2e2687" d="M 154.5,329.5 C 155.674,330.514 156.34,331.847 156.5,333.5C 156.427,335.027 157.094,336.027 158.5,336.5C 159.11,338.434 160.11,340.101 161.5,341.5C 163.358,343.883 164.692,346.55 165.5,349.5C 165.427,351.027 166.094,352.027 167.5,352.5C 168.674,353.514 169.34,354.847 169.5,356.5C 168.916,359.285 169.916,360.952 172.5,361.5C 173.338,361.842 173.672,362.508 173.5,363.5C 174.34,365.853 175.674,367.853 177.5,369.5C 179.358,371.883 180.692,374.55 181.5,377.5C 181.427,379.027 182.094,380.027 183.5,380.5C 184.674,381.514 185.34,382.847 185.5,384.5C 185.427,386.027 186.094,387.027 187.5,387.5C 188.338,387.842 188.672,388.508 188.5,389.5C 188.5,390.167 188.5,390.833 188.5,391.5C 188.327,401.676 186.327,402.01 182.5,392.5C 180.647,391.24 178.814,391.24 177,392.5C 176.64,390.579 175.806,388.912 174.5,387.5C 175.981,386.056 175.648,385.389 173.5,385.5C 172.504,385.586 171.671,385.252 171,384.5C 170.884,380.588 169.051,377.921 165.5,376.5C 163.929,374.365 162.596,372.032 161.5,369.5C 160.555,365.661 159.221,361.995 157.5,358.5C 158.964,360.63 160.964,361.963 163.5,362.5C 162.094,356.268 160.928,349.935 160,343.5C 159.448,340.953 158.114,338.953 156,337.5C 155.178,334.883 154.678,332.216 154.5,329.5 Z"/></g>
<g><path style="opacity:0.937" fill="#716f86" d="M 310.5,366.5 C 309.833,368.833 309.167,371.167 308.5,373.5C 307.833,373.5 307.167,373.5 306.5,373.5C 307.079,370.669 308.412,368.336 310.5,366.5 Z"/></g>
<g><path style="opacity:0.733" fill="#e8dae7" d="M 158.5,336.5 C 161.588,337.894 164.755,339.228 168,340.5C 170.457,345.867 173.29,351.033 176.5,356C 182.425,358.251 188.425,360.251 194.5,362C 195.667,363.167 196.833,364.333 198,365.5C 199.181,369.363 201.014,372.863 203.5,376C 204.833,376.667 206.167,376.667 207.5,376C 214.403,373.075 220.069,368.741 224.5,363C 229.992,362.514 231.825,365.014 230,370.5C 229.5,371 229,371.5 228.5,372C 225.833,372 223.167,372 220.5,372C 214.948,375.878 209.115,378.378 203,379.5C 198.964,375.269 195.798,370.435 193.5,365C 187.904,363.081 182.237,361.414 176.5,360C 172.241,355.056 168.741,349.556 166,343.5C 164.89,341.963 163.39,341.297 161.5,341.5C 160.11,340.101 159.11,338.434 158.5,336.5 Z"/></g>
<g><path style="opacity:1" fill="#eaa4b8" d="M 223.5,364.5 C 228.123,363.408 229.956,365.075 229,369.5C 223.42,371.752 221.587,370.085 223.5,364.5 Z"/></g>
<g><path style="opacity:0.192" fill="#c3c4d3" d="M 306.5,373.5 C 306.573,375.027 305.906,376.027 304.5,376.5C 304.427,374.973 305.094,373.973 306.5,373.5 Z"/></g>
<g><path style="opacity:0.208" fill="#bebdc9" d="M 321.5,374.5 C 321.25,376.674 320.25,378.341 318.5,379.5C 318.75,377.326 319.75,375.659 321.5,374.5 Z"/></g>
<g><path style="opacity:1" fill="#827cb1" d="M 165.5,376.5 C 169.051,377.921 170.884,380.588 171,384.5C 171.671,385.252 172.504,385.586 173.5,385.5C 173.5,387.167 173.5,388.833 173.5,390.5C 170.331,386.167 167.664,381.5 165.5,376.5 Z"/></g>
<g><path style="opacity:0.443" fill="#ac9bca" d="M 181.5,377.5 C 182.906,377.973 183.573,378.973 183.5,380.5C 182.094,380.027 181.427,379.027 181.5,377.5 Z"/></g>
<g><path style="opacity:0.961" fill="#72708a" d="M 302.5,380.5 C 302.264,383.621 300.931,385.954 298.5,387.5C 299.079,384.669 300.412,382.336 302.5,380.5 Z"/></g>
<g><path style="opacity:0.949" fill="#e6c5d3" d="M 217.5,382.5 C 220.999,383.134 221.999,384.967 220.5,388C 216.979,389.115 215.146,387.949 215,384.5C 215.995,383.934 216.828,383.267 217.5,382.5 Z"/></g>
<g><path style="opacity:0.153" fill="#c9c9dd" d="M 316.5,383.5 C 316.573,385.027 315.906,386.027 314.5,386.5C 314.427,384.973 315.094,383.973 316.5,383.5 Z"/></g>
<g><path style="opacity:0.42" fill="#ab99cb" d="M 185.5,384.5 C 186.906,384.973 187.573,385.973 187.5,387.5C 186.094,387.027 185.427,386.027 185.5,384.5 Z"/></g>
<g><path style="opacity:0.851" fill="#e8c4d6" d="M 207.5,387.5 C 211.5,386.833 213.167,388.5 212.5,392.5C 207.58,393.585 205.913,391.918 207.5,387.5 Z"/></g>
<g><path style="opacity:0.267" fill="#beb8d8" d="M 188.5,389.5 C 189.906,389.973 190.573,390.973 190.5,392.5C 189.833,392.167 189.167,391.833 188.5,391.5C 188.5,390.833 188.5,390.167 188.5,389.5 Z"/></g>
<g><path style="opacity:0.976" fill="#716f8b" d="M 298.5,387.5 C 298.264,390.621 296.931,392.954 294.5,394.5C 295.079,391.669 296.412,389.336 298.5,387.5 Z"/></g>
<g><path style="opacity:0.196" fill="#c3c1df" d="M 173.5,390.5 C 174.906,390.973 175.573,391.973 175.5,393.5C 174.094,393.027 173.427,392.027 173.5,390.5 Z"/></g>
<g><path style="opacity:0.161" fill="#c7c7d8" d="M 312.5,390.5 C 312.573,392.027 311.906,393.027 310.5,393.5C 310.427,391.973 311.094,390.973 312.5,390.5 Z"/></g>
<g><path style="opacity:0.498" fill="#e4d6e8" d="M 173.5,363.5 C 178.074,365.316 182.574,367.316 187,369.5C 191.667,378.167 196.333,386.833 201,395.5C 201.514,399.462 200.68,403.129 198.5,406.5C 197.599,405.71 196.932,404.71 196.5,403.5C 198.203,401.149 198.703,398.482 198,395.5C 193.21,386.75 188.043,378.25 182.5,370C 181.128,369.598 179.795,369.098 178.5,368.5C 177.893,368.624 177.56,368.957 177.5,369.5C 175.674,367.853 174.34,365.853 173.5,363.5 Z"/></g>
<g><path style="opacity:0.22" fill="#c1c2d2" d="M 294.5,394.5 C 294.573,396.027 293.906,397.027 292.5,397.5C 292.427,395.973 293.094,394.973 294.5,394.5 Z"/></g>
<g><path style="opacity:1" fill="#6f679f" d="M 175.5,393.5 C 177.641,395.67 179.641,398.003 181.5,400.5C 182.359,404.681 184.526,408.014 188,410.5C 189.185,413.932 190.352,417.265 191.5,420.5C 191.167,420.5 190.833,420.5 190.5,420.5C 185.107,411.76 180.107,402.76 175.5,393.5 Z"/></g>
<g><path style="opacity:0.145" fill="#cdccdb" d="M 308.5,397.5 C 308.573,399.027 307.906,400.027 306.5,400.5C 306.5,399.833 306.5,399.167 306.5,398.5C 307.167,398.167 307.833,397.833 308.5,397.5 Z"/></g>
<g><path style="opacity:1" fill="#625b92" d="M 190.5,392.5 C 193.258,395.678 195.258,399.345 196.5,403.5C 195.5,403.5 194.5,403.5 193.5,403.5C 191.97,400.017 190.97,396.35 190.5,392.5 Z"/></g>
<g><path style="opacity:0.224" fill="#bdbdd0" d="M 290.5,401.5 C 290.573,403.027 289.906,404.027 288.5,404.5C 288.427,402.973 289.094,401.973 290.5,401.5 Z"/></g>
<g><path style="opacity:0.157" fill="#cac9d6" d="M 304.5,404.5 C 304.573,406.027 303.906,407.027 302.5,407.5C 302.427,405.973 303.094,404.973 304.5,404.5 Z"/></g>
<g><path style="opacity:0.949" fill="#e7b5d3" d="M 202.5,413.5 C 201.833,412.833 201.167,412.167 200.5,411.5C 199.833,409.833 199.167,408.167 198.5,406.5C 202.416,404.359 205.083,405.359 206.5,409.5C 205.632,411.397 204.299,412.73 202.5,413.5 Z"/></g>
<g><path style="opacity:1" fill="#403a61" d="M 302.5,407.5 C 302.267,409.062 301.6,410.395 300.5,411.5C 299.094,411.973 298.427,412.973 298.5,414.5C 298.34,416.153 297.674,417.486 296.5,418.5C 295.094,418.973 294.427,419.973 294.5,421.5C 292.668,425.836 290.335,429.836 287.5,433.5C 287.162,429 288.662,425.333 292,422.5C 292.494,420.866 292.66,419.199 292.5,417.5C 293.675,417.719 294.675,417.386 295.5,416.5C 296.681,412.776 298.514,409.442 301,406.5C 301.383,407.056 301.883,407.389 302.5,407.5 Z"/></g>
<g><path style="opacity:0.157" fill="#c7c7d3" d="M 300.5,411.5 C 300.573,413.027 299.906,414.027 298.5,414.5C 298.427,412.973 299.094,411.973 300.5,411.5 Z"/></g>
<g><path style="opacity:0.992" fill="#777495" d="M 286.5,408.5 C 285.892,411.406 284.559,413.74 282.5,415.5C 283.079,412.669 284.412,410.336 286.5,408.5 Z"/></g>
<g><path style="opacity:1" fill="#231f7a" d="M 173.5,385.5 C 175.648,385.389 175.981,386.056 174.5,387.5C 175.806,388.912 176.64,390.579 177,392.5C 178.814,391.24 180.647,391.24 182.5,392.5C 186.327,402.01 188.327,401.676 188.5,391.5C 189.167,391.833 189.833,392.167 190.5,392.5C 190.97,396.35 191.97,400.017 193.5,403.5C 194.5,403.5 195.5,403.5 196.5,403.5C 196.932,404.71 197.599,405.71 198.5,406.5C 199.167,408.167 199.833,409.833 200.5,411.5C 200.917,414.079 200.25,416.246 198.5,418C 200.078,419.14 201.744,419.64 203.5,419.5C 204.147,422.454 204.314,425.454 204,428.5C 209.282,428.594 212.449,431.594 213.5,437.5C 211.347,439.896 208.681,441.563 205.5,442.5C 201.554,436.841 197.554,431.174 193.5,425.5C 192.662,425.158 192.328,424.492 192.5,423.5C 192.443,422.391 192.11,421.391 191.5,420.5C 190.352,417.265 189.185,413.932 188,410.5C 184.526,408.014 182.359,404.681 181.5,400.5C 179.641,398.003 177.641,395.67 175.5,393.5C 175.573,391.973 174.906,390.973 173.5,390.5C 173.5,388.833 173.5,387.167 173.5,385.5 Z"/></g>
<g><path style="opacity:1" fill="#686486" d="M 282.5,415.5 C 282.759,417.989 281.759,419.656 279.5,420.5C 280.11,418.566 281.11,416.899 282.5,415.5 Z"/></g>
<g><path style="opacity:0.137" fill="#cacada" d="M 296.5,418.5 C 296.573,420.027 295.906,421.027 294.5,421.5C 294.427,419.973 295.094,418.973 296.5,418.5 Z"/></g>
<g><path style="opacity:1" fill="#1c184f" d="M 306.5,398.5 C 306.5,399.167 306.5,399.833 306.5,400.5C 306.34,402.153 305.674,403.486 304.5,404.5C 303.094,404.973 302.427,405.973 302.5,407.5C 301.883,407.389 301.383,407.056 301,406.5C 298.514,409.442 296.681,412.776 295.5,416.5C 294.675,417.386 293.675,417.719 292.5,417.5C 292.66,419.199 292.494,420.866 292,422.5C 288.662,425.333 287.162,429 287.5,433.5C 287.672,434.492 287.338,435.158 286.5,435.5C 285.5,435.5 284.5,435.5 283.5,435.5C 283.5,437.167 283.5,438.833 283.5,440.5C 282.5,440.5 281.5,440.5 280.5,440.5C 281.108,439.2 281.775,437.867 282.5,436.5C 280.478,433.821 277.811,432.155 274.5,431.5C 275.508,435.817 273.841,438.15 269.5,438.5C 270.41,435.008 272.076,432.008 274.5,429.5C 276.931,427.954 278.264,425.621 278.5,422.5C 278.328,421.508 278.662,420.842 279.5,420.5C 281.759,419.656 282.759,417.989 282.5,415.5C 284.559,413.74 285.892,411.406 286.5,408.5C 286.66,406.847 287.326,405.514 288.5,404.5C 289.906,404.027 290.573,403.027 290.5,401.5C 290.66,399.847 291.326,398.514 292.5,397.5C 293.906,397.027 294.573,396.027 294.5,394.5C 296.931,392.954 298.264,390.621 298.5,387.5C 300.931,385.954 302.264,383.621 302.5,380.5C 302.66,378.847 303.326,377.514 304.5,376.5C 305.906,376.027 306.573,375.027 306.5,373.5C 307.167,373.5 307.833,373.5 308.5,373.5C 309.376,373.631 310.043,373.298 310.5,372.5C 311.015,370.775 311.682,369.108 312.5,367.5C 313.174,372.66 314.174,377.66 315.5,382.5C 313.088,382.756 311.421,381.756 310.5,379.5C 310.258,383.08 310.091,386.747 310,390.5C 309.632,391.91 308.799,392.91 307.5,393.5C 306.548,395.045 306.215,396.712 306.5,398.5 Z"/></g>
<g><path style="opacity:0.106" fill="#d3d3ed" d="M 190.5,420.5 C 190.833,420.5 191.167,420.5 191.5,420.5C 192.11,421.391 192.443,422.391 192.5,423.5C 191.094,423.027 190.427,422.027 190.5,420.5 Z"/></g>
<g><path style="opacity:0.575" fill="#e9dae5" d="M 211.5,429.5 C 210.11,428.101 209.11,426.434 208.5,424.5C 209.458,424.953 210.292,425.619 211,426.5C 212.351,424.981 213.851,423.648 215.5,422.5C 217.394,417.885 219.394,413.385 221.5,409C 229.277,405.79 235.944,401.123 241.5,395C 249.809,394.589 250.642,397.089 244,402.5C 242.951,401.483 241.784,401.316 240.5,402C 235.167,405 229.833,408 224.5,411C 221.832,415.157 219.832,419.657 218.5,424.5C 216.382,426.642 214.048,428.308 211.5,429.5 Z"/></g>
<g><path style="opacity:0.973" fill="#727090" d="M 278.5,422.5 C 278.264,425.621 276.931,427.954 274.5,429.5C 275.079,426.669 276.412,424.336 278.5,422.5 Z"/></g>
<g><path style="opacity:0.688" fill="#e9d5df" d="M 244.5,440.5 C 243.733,439.828 243.066,438.995 242.5,438C 235.914,435.86 229.247,434.027 222.5,432.5C 219.666,433.01 217.332,434.344 215.5,436.5C 214.326,435.486 213.66,434.153 213.5,432.5C 216.522,431.074 219.688,430.074 223,429.5C 229.57,430.934 236.07,432.601 242.5,434.5C 249.515,430.911 252.682,432.911 252,440.5C 249.299,443.002 246.799,443.002 244.5,440.5 Z"/></g>
<g><path style="opacity:1" fill="#eaa5b8" d="M 244.5,440.5 C 243.855,435.685 245.688,434.019 250,435.5C 250.494,437.134 250.66,438.801 250.5,440.5C 248.5,440.5 246.5,440.5 244.5,440.5 Z"/></g>
<g><path style="opacity:1" fill="#666286" d="M 286.5,435.5 C 286.25,437.674 285.25,439.341 283.5,440.5C 283.5,438.833 283.5,437.167 283.5,435.5C 284.5,435.5 285.5,435.5 286.5,435.5 Z"/></g>
<g><path style="opacity:1" fill="#2a2373" d="M 200.5,411.5 C 201.167,412.167 201.833,412.833 202.5,413.5C 205.258,416.678 207.258,420.345 208.5,424.5C 209.11,426.434 210.11,428.101 211.5,429.5C 212.401,430.29 213.068,431.29 213.5,432.5C 213.66,434.153 214.326,435.486 215.5,436.5C 216.338,436.842 216.672,437.508 216.5,438.5C 216.427,440.027 217.094,441.027 218.5,441.5C 219.674,442.514 220.34,443.847 220.5,445.5C 220.427,447.027 221.094,448.027 222.5,448.5C 223.338,448.842 223.672,449.508 223.5,450.5C 223.557,451.609 223.89,452.609 224.5,453.5C 224.851,455.869 225.018,458.203 225,460.5C 221.5,459.587 218,458.253 214.5,456.5C 214.649,455.448 214.483,454.448 214,453.5C 211.579,451.412 209.412,449.079 207.5,446.5C 206.194,445.533 205.527,444.199 205.5,442.5C 208.681,441.563 211.347,439.896 213.5,437.5C 212.449,431.594 209.282,428.594 204,428.5C 204.314,425.454 204.147,422.454 203.5,419.5C 201.744,419.64 200.078,419.14 198.5,418C 200.25,416.246 200.917,414.079 200.5,411.5 Z"/></g>
<g><path style="opacity:0.267" fill="#bab9d3" d="M 216.5,438.5 C 217.906,438.973 218.573,439.973 218.5,441.5C 217.094,441.027 216.427,440.027 216.5,438.5 Z"/></g>
<g><path style="opacity:0.341" fill="#b1a5c4" d="M 269.5,438.5 C 269.573,440.027 268.906,441.027 267.5,441.5C 267.427,439.973 268.094,438.973 269.5,438.5 Z"/></g>
<g><path style="opacity:1" fill="#56527b" d="M 280.5,440.5 C 281.5,440.5 282.5,440.5 283.5,440.5C 282.921,443.331 281.588,445.664 279.5,447.5C 279.198,444.941 279.532,442.607 280.5,440.5 Z"/></g>
<g><path style="opacity:1" fill="#7973a5" d="M 193.5,425.5 C 197.554,431.174 201.554,436.841 205.5,442.5C 205.527,444.199 206.194,445.533 207.5,446.5C 206.833,446.5 206.5,446.833 206.5,447.5C 201.666,440.504 197.333,433.171 193.5,425.5 Z"/></g>
<g><path style="opacity:0.298" fill="#b8b9d5" d="M 220.5,445.5 C 221.906,445.973 222.573,446.973 222.5,448.5C 221.094,448.027 220.427,447.027 220.5,445.5 Z"/></g>
<g><path style="opacity:0.145" fill="#bfbed7" d="M 206.5,447.5 C 207.674,448.514 208.34,449.847 208.5,451.5C 206.896,450.713 206.229,449.38 206.5,447.5 Z"/></g>
<g><path style="opacity:0.392" fill="#e2d4e7" d="M 267.5,441.5 C 266.242,443.687 265.242,446.02 264.5,448.5C 264.167,448.5 263.833,448.5 263.5,448.5C 263.631,447.761 263.464,447.094 263,446.5C 260.636,448.363 258.136,450.029 255.5,451.5C 254.417,450.635 254.251,449.635 255,448.5C 258.983,445.76 263.15,443.427 267.5,441.5 Z"/></g>
<g><path style="opacity:0.086" fill="#d3cee2" d="M 279.5,447.5 C 279.771,449.38 279.104,450.713 277.5,451.5C 277.66,449.847 278.326,448.514 279.5,447.5 Z"/></g>
<g><path style="opacity:1" fill="#60588e" d="M 209.5,453.5 C 210.708,454.234 212.041,454.567 213.5,454.5C 213.5,455.833 213.5,457.167 213.5,458.5C 216.205,458.38 216.872,459.38 215.5,461.5C 216.788,463.739 217.788,466.072 218.5,468.5C 214.749,464.005 211.749,459.005 209.5,453.5 Z"/></g>
<g><path style="opacity:1" fill="#554f7a" d="M 277.5,451.5 C 273.466,461.061 267.8,469.561 260.5,477C 259.255,477.791 257.922,478.291 256.5,478.5C 257.768,477.213 257.435,476.213 255.5,475.5C 257.396,474.534 259.396,474.201 261.5,474.5C 261.167,471.5 262.5,470.167 265.5,470.5C 265.343,469.127 265.51,467.793 266,466.5C 270.334,462.486 272.668,457.486 273,451.5C 274.618,451.598 276.118,451.598 277.5,451.5 Z"/></g>
<g><path style="opacity:1" fill="#1f1b62" d="M 280.5,440.5 C 279.532,442.607 279.198,444.941 279.5,447.5C 278.326,448.514 277.66,449.847 277.5,451.5C 276.118,451.598 274.618,451.598 273,451.5C 272.668,457.486 270.334,462.486 266,466.5C 265.51,467.793 265.343,469.127 265.5,470.5C 262.5,470.167 261.167,471.5 261.5,474.5C 259.396,474.201 257.396,474.534 255.5,475.5C 257.435,476.213 257.768,477.213 256.5,478.5C 250.74,480.771 244.74,481.771 238.5,481.5C 235.263,480.208 232.263,478.374 229.5,476C 227.482,475.495 225.482,474.995 223.5,474.5C 221.086,473.089 219.419,471.089 218.5,468.5C 217.788,466.072 216.788,463.739 215.5,461.5C 216.872,459.38 216.205,458.38 213.5,458.5C 213.5,457.167 213.5,455.833 213.5,454.5C 212.041,454.567 210.708,454.234 209.5,453.5C 208.662,453.158 208.328,452.492 208.5,451.5C 208.34,449.847 207.674,448.514 206.5,447.5C 206.5,446.833 206.833,446.5 207.5,446.5C 209.412,449.079 211.579,451.412 214,453.5C 214.483,454.448 214.649,455.448 214.5,456.5C 218,458.253 221.5,459.587 225,460.5C 225.018,458.203 224.851,455.869 224.5,453.5C 225.167,454.167 225.833,454.833 226.5,455.5C 227.674,456.514 228.34,457.847 228.5,459.5C 228.427,461.027 229.094,462.027 230.5,462.5C 231.833,463.5 233.167,464.5 234.5,465.5C 234.577,466.75 235.244,467.583 236.5,468C 238.473,468.495 240.473,468.662 242.5,468.5C 244.379,467.659 246.379,467.325 248.5,467.5C 250.38,467.771 251.713,467.104 252.5,465.5C 254.426,464.758 256.259,463.758 258,462.5C 260.837,458.158 263.003,453.491 264.5,448.5C 265.242,446.02 266.242,443.687 267.5,441.5C 268.906,441.027 269.573,440.027 269.5,438.5C 273.841,438.15 275.508,435.817 274.5,431.5C 277.811,432.155 280.478,433.821 282.5,436.5C 281.775,437.867 281.108,439.2 280.5,440.5 Z"/></g>
<g><path style="opacity:0.212" fill="#c2c6e1" d="M 234.5,465.5 C 237.163,466.752 239.83,467.752 242.5,468.5C 240.473,468.662 238.473,468.495 236.5,468C 235.244,467.583 234.577,466.75 234.5,465.5 Z"/></g>
<g><path style="opacity:0.278" fill="#b4b4ce" d="M 252.5,465.5 C 251.713,467.104 250.38,467.771 248.5,467.5C 249.514,466.326 250.847,465.66 252.5,465.5 Z"/></g>
<g><path style="opacity:0.471" fill="#9f9ec2" d="M 228.5,459.5 C 229.906,459.973 230.573,460.973 230.5,462.5C 229.094,462.027 228.427,461.027 228.5,459.5 Z"/></g>
<g><path style="opacity:1" fill="#413c6b" d="M 263.5,448.5 C 263.833,448.5 264.167,448.5 264.5,448.5C 263.003,453.491 260.837,458.158 258,462.5C 256.259,463.758 254.426,464.758 252.5,465.5C 254.866,462.143 257.199,458.81 259.5,455.5C 260.906,455.027 261.573,454.027 261.5,452.5C 261.66,450.847 262.326,449.514 263.5,448.5 Z"/></g>
<g><path style="opacity:0.337" fill="#aeadc3" d="M 261.5,452.5 C 261.573,454.027 260.906,455.027 259.5,455.5C 259.427,453.973 260.094,452.973 261.5,452.5 Z"/></g>
<g><path style="opacity:0.671" fill="#e8d9ea" d="M 223.5,450.5 C 229.628,450.899 235.794,452.232 242,454.5C 245.069,453.364 248.069,452.031 251,450.5C 252.059,450.63 252.892,451.13 253.5,452C 250.492,454.754 246.992,456.587 243,457.5C 237.479,456.695 232.146,455.362 227,453.5C 226.536,454.094 226.369,454.761 226.5,455.5C 225.833,454.833 225.167,454.167 224.5,453.5C 223.89,452.609 223.557,451.609 223.5,450.5 Z"/></g>
<g><path style="opacity:1" fill="#65608b" d="M 223.5,474.5 C 225.482,474.995 227.482,475.495 229.5,476C 232.263,478.374 235.263,480.208 238.5,481.5C 237.833,481.5 237.167,481.5 236.5,481.5C 231.404,480.454 227.071,478.121 223.5,474.5 Z"/></g>
<g><path style="opacity:0.065" fill="#d4d2e7" d="M 256.5,478.5 C 254.266,480.446 251.599,481.613 248.5,482C 244.311,482.812 240.311,482.645 236.5,481.5C 237.167,481.5 237.833,481.5 238.5,481.5C 244.74,481.771 250.74,480.771 256.5,478.5 Z"/></g>
</svg>
